<?xml version="1.0" encoding="UTF-8"?>
<svg id="Layer_1" data-name="Layer 1" xmlns="http://www.w3.org/2000/svg" viewBox="0 0 1080 1080">
  <defs>
    <style>
      .cls-1 {
        fill: #f4795e;
        fill-rule: evenodd;
      }

      .cls-2 {
        fill: #3c3f5c;
      }
    </style>
  </defs>
  <path class="cls-1" d="m191.15,503.32c-.67,8.19,2.13,31.79-5.62,34.11-11.62,3.49-19.04-22.11-26.72-34.11h-47.25c-8.32,0-15.1-6.78-15.1-15.1v-67.38c0-8.32,6.78-15.1,15.1-15.1h92.94c8.32,0,15.1,6.78,15.1,15.1v67.38c0,8.32-6.78,15.1-15.1,15.1h-13.36Z"/>
  <path class="cls-2" d="m143.73,449.31c-.91-.99-1.96-1.76-3.17-2.28-1.21-.53-2.51-.79-3.91-.79-2.41,0-4.34.78-5.8,2.34-1.45,1.56-2.17,3.62-2.17,6.21s.73,4.79,2.19,6.33c1.46,1.53,3.47,2.29,6.06,2.29,1.43,0,2.71-.27,3.84-.8,1.12-.54,2.11-1.35,2.96-2.43v6.8c-1.09.61-2.26,1.07-3.5,1.38-1.24.31-2.56.46-3.96.46-4.05,0-7.35-1.29-9.89-3.86-2.55-2.57-3.83-5.92-3.83-10.02s1.32-7.51,3.96-10.05c2.65-2.55,6.09-3.83,10.37-3.83,1.34,0,2.57.13,3.7.4,1.12.26,2.18.67,3.16,1.22v6.63h0Z"/>
  <path class="cls-2" d="m146.5,463.08l4.91-2.68c.36,1.29,1.03,2.28,2.02,2.94.98.68,2.24,1.01,3.77,1.01,1.33,0,2.37-.31,3.12-.91.75-.61,1.12-1.44,1.12-2.5,0-1.39-1.34-2.59-4.02-3.6-.9-.33-1.61-.59-2.09-.82-2.76-1.14-4.69-2.3-5.79-3.48-1.1-1.17-1.64-2.61-1.64-4.29,0-2.3.9-4.17,2.7-5.61,1.81-1.43,4.2-2.15,7.17-2.15,2,0,3.71.37,5.13,1.11,1.42.73,2.46,1.77,3.11,3.14l-4.19,2.89c-.31-.82-.85-1.47-1.62-1.95-.77-.48-1.66-.72-2.68-.72-1.12,0-2.03.27-2.7.8-.68.54-1.02,1.25-1.02,2.15,0,1.34,1.52,2.56,4.56,3.67.97.34,1.71.63,2.23.85,2.38.95,4.08,2.01,5.11,3.2,1.02,1.19,1.53,2.68,1.53,4.45,0,2.58-.94,4.6-2.81,6.06-1.87,1.46-4.44,2.19-7.73,2.19-2.52,0-4.62-.47-6.28-1.41-1.67-.95-2.97-2.39-3.92-4.33h0Z"/>
  <path class="cls-2" d="m169.93,463.08l4.91-2.68c.36,1.29,1.03,2.28,2.02,2.94.98.68,2.24,1.01,3.77,1.01,1.33,0,2.37-.31,3.12-.91.75-.61,1.12-1.44,1.12-2.5,0-1.39-1.34-2.59-4.02-3.6-.9-.33-1.61-.59-2.09-.82-2.76-1.14-4.69-2.3-5.79-3.48-1.1-1.17-1.64-2.61-1.64-4.29,0-2.3.9-4.17,2.7-5.61,1.81-1.43,4.2-2.15,7.17-2.15,2,0,3.71.37,5.13,1.11,1.42.73,2.46,1.77,3.11,3.14l-4.19,2.89c-.31-.82-.85-1.47-1.62-1.95-.77-.48-1.66-.72-2.68-.72-1.12,0-2.03.27-2.7.8-.68.54-1.02,1.25-1.02,2.15,0,1.34,1.52,2.56,4.56,3.67.97.34,1.71.63,2.23.85,2.38.95,4.08,2.01,5.11,3.2,1.02,1.19,1.53,2.68,1.53,4.45,0,2.58-.94,4.6-2.81,6.06-1.87,1.46-4.44,2.19-7.73,2.19-2.52,0-4.62-.47-6.28-1.41-1.67-.95-2.97-2.39-3.92-4.33h0Z"/>
</svg>