<?xml version="1.0" encoding="UTF-8"?>
<svg id="Layer_1" data-name="Layer 1" xmlns="http://www.w3.org/2000/svg" viewBox="0 0 1080 1080">
  <defs>
    <style>
      .cls-1 {
        fill: #f4795e;
        fill-rule: evenodd;
      }

      .cls-2 {
        fill: #3c3f5c;
      }
    </style>
  </defs>
  <path class="cls-1" d="m807.36,408.43c.67,8.19-2.13,31.79,5.62,34.11,11.62,3.49,19.04-22.11,26.72-34.11h47.25c8.32,0,15.1-6.78,15.1-15.1v-67.38c0-8.32-6.78-15.1-15.1-15.1h-92.94c-8.32,0-15.1,6.78-15.1,15.1v67.38c0,8.32,6.78,15.1,15.1,15.1h13.36Z"/>
  <polygon class="cls-2" points="800.18 372.3 800.18 344.39 804.71 344.39 804.71 354.7 818.45 354.7 818.45 344.39 822.97 344.39 822.97 372.3 818.45 372.3 818.45 358.76 804.71 358.76 804.71 372.3 800.18 372.3 800.18 372.3"/>
  <polygon class="cls-2" points="834.71 348.26 834.71 372.3 830.18 372.3 830.18 348.26 822.76 348.26 822.76 344.39 842.08 344.39 842.08 348.26 834.71 348.26 834.71 348.26"/>
  <path class="cls-2" d="m864.62,358.52c-.05-.21-.14-.81-.25-1.79-.1-.81-.2-1.49-.27-2.02-.12.64-.28,1.27-.49,1.91-.21.64-.47,1.28-.79,1.95l-7.3,14.87-7.3-15.18c-.31-.62-.57-1.22-.79-1.81-.22-.59-.42-1.16-.58-1.74-.01.59-.06,1.2-.14,1.84-.08.64-.21,1.31-.37,2.01l-2.99,13.74h-4.18l6.6-29.08,8.24,17.61c.12.27.32.74.58,1.39.26.65.57,1.45.94,2.4.27-.8.69-1.81,1.26-3.04.15-.33.27-.59.34-.76l8.05-17.59,6.75,29.08h-4.22l-3.08-13.78h0Z"/>
  <polygon class="cls-2" points="871.86 372.3 871.86 344.39 876.38 344.39 876.38 368.24 886.53 368.24 886.53 372.3 871.86 372.3 871.86 372.3"/>
</svg>