<?xml version="1.0" encoding="UTF-8"?>
<svg id="Layer_1" data-name="Layer 1" xmlns="http://www.w3.org/2000/svg" viewBox="0 0 1080 1080">
  <defs>
    <style>
      .cls-1 {
        fill: #f4795e;
        fill-rule: evenodd;
      }

      .cls-2 {
        fill: #3c3f5c;
      }
    </style>
  </defs>
  <path class="cls-1" d="m513.93,274.96c-.94,11.51,2.99,44.68-7.9,47.95-16.33,4.9-26.77-31.09-37.56-47.95h-66.41c-11.69,0-21.23-9.54-21.23-21.23v-94.72c0-11.69,9.54-21.23,21.23-21.23h130.64c11.69,0,21.23,9.54,21.23,21.23v94.72c0,11.69-9.54,21.23-21.23,21.23h-18.78Z"/>
  <g>
    <path class="cls-2" d="m410.1,201.67c6.49,0,7.41-3.57,7.41-6.77,0-2.56-.37-5.12-.73-7.68-.37-2.56-.73-5.03-.73-7.59,0-8.41,5.49-11.98,13.26-11.98h1.92v5.03h-1.65c-5.4,0-7.22,2.93-7.22,7.86,0,2.1.27,4.3.64,6.49.37,2.29.64,4.48.64,6.95.09,5.85-2.47,8.78-6.58,9.88v.18c4.12,1.01,6.68,4.12,6.58,9.97,0,2.47-.27,4.76-.64,6.95-.37,2.29-.64,4.39-.64,6.58,0,5.12,2.1,7.96,7.22,7.96h1.65v5.03h-1.92c-7.59,0-13.26-3.29-13.26-12.53,0-2.47.37-5.03.73-7.5.37-2.47.73-4.94.73-7.41,0-2.83-.91-6.77-7.41-6.77v-4.66Z"/>
    <path class="cls-2" d="m441,225.53c0-3.38,2.29-5.76,5.49-5.76s5.4,2.38,5.4,5.76-2.1,5.76-5.49,5.76c-3.2,0-5.4-2.47-5.4-5.76Z"/>
    <path class="cls-2" d="m462.68,225.53c0-3.38,2.29-5.76,5.49-5.76s5.4,2.38,5.4,5.76-2.1,5.76-5.49,5.76c-3.2,0-5.39-2.47-5.39-5.76Z"/>
    <path class="cls-2" d="m484.35,225.53c0-3.38,2.29-5.76,5.49-5.76s5.4,2.38,5.4,5.76-2.1,5.76-5.49,5.76c-3.2,0-5.39-2.47-5.39-5.76Z"/>
    <path class="cls-2" d="m524.68,206.33c-6.49,0-7.41,3.93-7.41,6.77,0,2.47.37,4.94.73,7.41s.73,5.03.73,7.5c0,9.24-5.76,12.53-13.26,12.53h-1.92v-5.03h1.55c5.12-.09,7.32-2.83,7.32-7.96,0-2.19-.37-4.3-.64-6.58-.37-2.19-.73-4.48-.73-6.95,0-5.85,2.56-8.96,6.58-9.97v-.18c-4.02-1.1-6.58-4.02-6.58-9.88,0-2.47.37-4.66.73-6.95.27-2.19.64-4.39.64-6.49,0-4.94-1.92-7.77-7.22-7.86h-1.65v-5.03h1.83c7.77,0,13.35,3.57,13.35,11.98,0,2.56-.37,5.03-.73,7.59-.37,2.56-.73,5.12-.73,7.68,0,3.2.91,6.77,7.41,6.77v4.66Z"/>
  </g>
</svg>