<?xml version="1.0" encoding="UTF-8"?>
<svg id="Layer_1" data-name="Layer 1" xmlns="http://www.w3.org/2000/svg" viewBox="0 0 1080 1080">
  <defs>
    <style>
      .cls-1, .cls-2 {
        fill: #f37c72;
      }

      .cls-3 {
        fill: #fff;
      }

      .cls-4 {
        fill: #3c3f5c;
      }

      .cls-4, .cls-5, .cls-2, .cls-6, .cls-7, .cls-8 {
        fill-rule: evenodd;
      }

      .cls-9 {
        fill: #293053;
      }

      .cls-10 {
        fill: #f37169;
      }

      .cls-11, .cls-8 {
        fill: #26293a;
      }

      .cls-12 {
        fill: #f8a794;
      }

      .cls-5 {
        fill: #fed5b1;
      }

      .cls-13 {
        fill: #f9b19f;
      }

      .cls-6 {
        fill: #f4795e;
      }

      .cls-7 {
        fill: #31334a;
      }

      .cls-14 {
        fill: #fdc99f;
      }
    </style>
  </defs>
  <g>
    <path class="cls-5" d="m532.55,259.51c265.44,0,480.62,215.18,480.62,480.62,0,49.58-7.51,97.39-21.45,142.39H73.39c-13.94-45-21.45-92.81-21.45-142.39,0-265.44,215.18-480.62,480.62-480.62h0Z"/>
    <path class="cls-14" d="m858.53,688.78l-.11-.37.11.36h0Zm126.02,193.74h-2.58c.12-1.57.52-7.43.28-9.48q-.5.43-.75.43l.58-.95.25.17c-.05-1.01-.08-1.37-.18-1.81.61-.86.94-1.18,1.44-1.34,1.87-.21,2.53,6.01.94,12.99h0Zm-22.74,0h-39.75c-1.36-1.97-1.2-3.46-.9-6.15-3.01,5.96-3.58,5.91-4.36,5.83-2.11-3.59,2.91-7.86-1.08-11.27l-.04.02c2.76-1.94,6.66-1.68,8.92-4.6-6.11,1.72-9.38-3.9-13.17-10.39.68-1.13.9-1.22,1.45-1.42.43.29,1.43.96.93,3.93,3.1-3.8,5.57-5.07,8.33-5.83,6.36-.63,5.87,3.7,4.81,13.2l.2-.46c-.02.11-1.91,10.36,1.39,9.84,8.14-1.26,8.99-12.69,17.92-12.84,6.58-.11,12.15,11.53,15.36,20.13h0Zm-96.11,0h-6.78c.02-.59.07-1.25.16-1.98.79-6.33.56-6.65-.88-8.7-1.43,1.4-2.99,6-4.27,10.68h-8.42c.02-3.16.2-6.3,1.11-9.39,2.04-6.94,7.36-12.22,9.64-19.04,1.2-3.58,1.83-7.34,3.36-10.81.27-.62.62-1.39,1.15-2.17.89-1.28,2.32-2.17,4.26-2.63,6.98-1.69,14.17-2.1,21.19-3.52.79-.17,1.85-.4,2.65-.58.11.9.21,2.17-.03,3.05q-.44,1.58-5.18,7.19l.92-1.21c-2.34,2.28-2.76,2.69-8.35,1.99-6.4-.8-9.62-1.2-14.77,2.49-4.74,3.4-5.73,5.24-3.42,6.33,3.38,1.59,6.8,1.12,10.22.66,2.49-.35,4.99-.69,7.46-.24h0c-5.39,1.37-7.94,14.9-12.45,9.18.18,6.3,2.66,12.37,2.45,18.71h0Zm-97.65,0h-20.75c-2.37-5.1-5.19-11.68-8.63-19.77-15.08-35.49-26.66-59.45-34.11-60.93l1.31-.09c4.9-.05,8.64,2.55,10.45,3.8,5.28,3.67,8.46,9.41,13.36,13.47,3.84,3.18,8.66,4.84,12.54,7.98.05.05,4.89,4.01,3.94,7.4q-.74.17-1.71-.23c1.43.95,2.23,1.71,3.42,3.25-.13-1.11-.07-1.38.63-2.61,2.37.8,3.56,1.2,4.71,3.5,1.61,3.19.88,6.87,2.13,10.15,2.16,5.67,6.01,10.39,8.91,15.63q3.45-2.35,12.66,6.53l.04.05h.03l.43.36-.28.05.84.84-1.03-.28c-.69.26-1.85,1.93-.17,3.62-4.78,2.65-5.94.66-10.86-7.71,1.07,3.29,2.88,8.87,2.13,14.99h0Zm-440.53,0h-158.11c-8.73-10.89-15.64-25.46-10.13-35.23-9.81-10.64.46-27.78-12.15-37.52-.49.47-1.13,1.09-1.62,1.56-.64-.22-1.5-.52-2.14-.73-.77.95-2.36,1.85-3.57,2.02q-17.55-17.6-22.52-13.91c-23.54,17.47-26.43,10.73-31.21-.45-.11-.25-11.29-32.4-14.24-77.26-1.21-18.3,6.16-35.72,5.6-53.96-.11.67-.23,1.57-.34,2.25,2.7-38.53,44.08-106.18,44.49-106.79,6.35-9.23,9.24-12.77,11.02-13.53,2.54-1.07,4.25,1.16,6.42,1.59,1.96.4,2.75.1,10.55-5.27,7.11-4.89,9.88-6.34,14.11-7.41q1.81-.45,20.18-1.79c4.1-.11,6.82-.19,2.96,8.43-2.68,6.01-7.38,11.11-8.15,17.98,1.8,12.58,31.81,36.25,37.4,18.19,2.59-8.35,5.73-10.12,7.92-10.15.94-.01,2.21-.12,3.13.05,9.07,1.7,14.53,10.14,23.29,12.44,4.35,1.14,8.41-.13,12.47-1.39,3.9-1.22,7.8-2.45,11.96-1.53.6,1.3,1.61,2.92,2.51,4.02,12.52-1.53,17.94-12.67,22.31-21.62,8.34-17.96,5.45-21.63,4.36-22.33-.01,0-20.46.58-24.86.85-8.75.56-13.75-1.11-15.4-1.66.28-.52.66-1.22.95-1.75-1.28-.39-3.06-.61-4.4-.62.62-3.37.24-6.91,1.83-10.1-5.44-5.83,2.3-11.1,1.56-16.83-3.76-2.56-7.03-3.55-11.67-.57-.11,1.35.22,3.24.79,4.47-1.23.04-2.87.25-4.07.54-.1.62-.24,1.45-.34,2.08-.56-1.38-1.51-3.16-2.36-4.39-1.47,6.32,3.27,11.84,2.32,18.09-.37-.53-.86-1.24-1.23-1.77-.01,1.14-.62,2.71-1.42,3.53-.91-.7-2.55-1.2-3.69-1.06.41.55.97,1.28,1.38,1.83-.95.86-2.28,1.96-3.29,2.74-.1,1.48-.28,3.46-.44,4.94-.55.35-1.28.83-1.83,1.17-8.09-5.39-3.19-11.65-1.58-13.71-1.32-.08-4.07-.28-4.81-4.14-.9-4.61.6-11.79.62-11.86,1.66-7.51-3.62-13.42-4.66-20.3-.28-1.79-1.53-4-1.71-5.81-.16-1.62.49-3.89,1.39-5.24-.29-.59-.66-1.37-.95-1.96-.57.2-1.33.48-1.9.67-.56-.29-1.32-.67-1.88-.97-5.98,4.31-8.23,5.93-7.35,14.58.9,8.86,9.71,13.8,11.12,22.41-1.68.64-3.27.25-4.86-.14-1.11-.28-2.21-.54-3.35-.47l-.1.1c.03.08-.83,11.13-5.92,17.09-2.19-.26-3.98.73-5.78,1.72-1.68.93-3.37,1.85-5.38,1.75-3.38-5.9,7.69-5.87,10.53-9.85,8.88-12.41-4.22-34.83-4.36-35.05-2.97-4.7-7.21-3.17-11.46-1.64-2.18.78-4.35,1.57-6.37,1.51-.03,0-.06,0-1.5.09-.12.03-19.36,15.49-29.42,32.93-6.72,11.66-13.75,18.41-21.48,20.64-2.8-2.03-2.45-5.66-4.17-8.23-.61.16-1.42.38-2.02.54q3.97-9,5.96-12.82h0l-.43.54q15.53-32.86,28.67-32.33c6.89.28,24.12-20.79,17.48-32.46,3.95-2.44,4.14-2.51,10.17-4.09,3.93-9.88,45.75-33.03,46.13-33.17l1.45,1.38c4.6-4.95,7.25-11.31,11.82-16.27.75-.76,1.81-1.71,2.62-2.42l.22-.11c3.55-2.93,5.01-3.14,7.03-3.43-3.5,3.75-5.94,8.47-10.38,11.35.68-.05,1.59-.12,2.28-.18q-2.23,3.45-5.02,3.69c.28-.65.66-1.53.93-2.19-2.3,3.72-2.14,4-.93,6.22,0,0,3.67-.43,8.72-.82-.5.35-1.18.8-1.69,1.15.32.57.75,1.34,1.07,1.91.19-.01,19.2-1.74,23.22-4.37,6.01-8.94,11.12-14.79,15.21-17.37,1.07.6,2.27,1.81,2.93,2.83,6.8-.78,5.22-8.2,8.9-11.46q2.35-2.08,21.26-3.22c-.21-.75-.48-1.76-.69-2.52-.65-.33-1.51-.79-2.16-1.13l-.27-1.41q-16.91,3.01-20.04,1.92,5.11-7.77,24.56-22.77c-7.87-5.6-10.06,1.11-10.78,3.31-26.37,10.21-25.05,18.2-24.41,22.04q-28.22,24.57-35.13,25.02c.25-.72.59-1.68.84-2.41q-5.69,5.86-7.35,7.12c-.56-.26-1.31-.6-1.87-.85q3.57-1.32,4.13-5.59c7.86,1.53,12.88-14.19,15.03-20.91-5.87,4.74-8.4,6.11-13.02,7.85-.5-.35-1.17-.81-1.66-1.15.37-2.15,1.81-3.97,1.87-6.21,4.83-4.48,7.59-11.04,14-13.92,4.25-2,4.79-2.25,8.42-4.01,10.42-5.12,19.72-12.08,29.75-17.85l.22-.06c4.56-2.93,5.64-3.62,6.59-4.51h0s0,0,0,0l.96-.94c-1.39.38-3.31.67-4.75.77,3.71-2.24,7.9-3.44,11.73-5.41-.39.46-.92,1.08-1.32,1.54,4.88-.38,8.5-3.9,13-5.22-.03.6-.07,1.39-.1,1.98q4.96-1.3,5.78-2.05c.67.11,1.57.27,2.25.38,1.83-2.46,2.16-2.9,6.58-4.45.56.32,1.31.75,1.87,1.07-1.19.74-2.74,1.79-3.88,2.63,4.12-1.98,8.3-2.64,10.09-2.91-.5.35-1.15.82-1.64,1.18.72-.22,1.68-.51,2.4-.73.62.35,1.43.83,2.04,1.19-1.41.48-3.28,1.11-4.69,1.6q6.62.45,7.42.55c.12.59.27,1.36.39,1.95,11.12,2.4,15.27,3.3,16.44,6.08,1.58,3.76-5.14,8.34-8.27,8.96-5.97,1.19-10.42-3.46-15.9-4.14q3.5,14.07,7.4,13.11c-.29-1.24-.95-2.85-1.6-3.96,8.08-.25,14.12-7.14,22.36-6.88.39.49.9,1.14,1.28,1.63q3.09-6.91,3.71-9.28c-.32-.52-.74-1.22-1.07-1.74,5.37-2.78,8.16-1.68,8.31,3.32-4.69.18-5.6.34-6.27,3.96,5.54.46,10.26-1.93,14.98-4.33,4.65-2.36,9.31-4.71,14.76-4.33-1.09.79-2.5,1.91-3.54,2.77,16.47-.79,18.89-2.07,21.94-3.67q-.19-.27-6.25-4.84,27.14,8.12,28.2,7.78c-3.38-3.55-4.79-6.86-4.18-9.83.96-4.72,7.08-5.11,8.16-9.71,1.28.1,2.97.48,4.18.92h.38c.59.21,1.37.48,1.96.68,2.82,6.07,1.68,13.14,4.82,19.13-1.7,4.44-1.87,4.91-7.8,7.41,13.93-.94,12.41-6.36,11.59-9.28,5.92-3.06,9.01,3.08,13.65,4.22h.04c-6.42-5.51-15.28-8-19.74-15.93q3.04-2.02,3.9-5.22c.5.37,1.18.84,1.68,1.21.06,1.56.33,3.65.65,5.19q1.28.64,8.85,1.12-.73-1.07-6.19-3.8c.59.14,1.37.33,1.96.48.46-.38,1.08-.88,1.55-1.26-.51-.33-1.18-.77-1.69-1.09.05.02,9.43,2.11,15.28,2.34-2.75-3.81-4.29-4.74-9.12-5.52h0s-.01,0,.9-.39c5.27-1.33,10.89.2,16.06-1.96-.58-.25-1.35-.57-1.93-.82-1.13-5.44,1.7-5.39,13.58-5.19.85-.9,2.42-1.71,3.63-1.97,0,0,3.34.99,11.61.58-.5-.39-1.18-.91-1.69-1.3.55,0,1.28,0,1.83,0q2.09-2.72,4.89-3.34c11.97-.25,22.77,4.1,33.57,8.46,10.75,4.33,21.5,8.65,33.39,8.45.33-.47.77-1.11,1.1-1.59-.18-.59-.41-1.39-.58-1.98,11.74,2.93,21.86,11.94,35.08,9.26-.2-.67-.46-1.57-.65-2.25,5.95-1.92,11.45,1.09,17.18,1.58,0,0,.02,0-1.34-.31l-1.44-1.25q2.19-.1,5.97.31c-1.4-.59-3.25-1.38-4.65-1.98-.2-.56-.48-1.32-.69-1.89,22.04-1.85,23.57-.61,29.28,3.97,6.62,5.32,13.95,4.69,21.29,4.05,3.72-.33,7.44-.65,11.07-.19,9.49,1.2,19.07,1.32,28.56,2.49,1.18.14,2.66.85,3.65,1.49-.56-.17-1.3-.41-1.85-.58,7.84,2.85,9.09,3.06,12.8,3.69q-8.5-3.56-9.51-5.62c18.67-1.02,64.19,11.48,71.64,19.67-.63,0-1.46,0-2.08,0,.9.43,5.6,2.69,9.5,5.7-10.88,5.7-16.92-5.54-25.66-7.32q4.41,2.94,5.96,4.08c-.32.48-.75,1.13-1.07,1.6,7.57,4.01,15.74,6.84,22.78,11.86-2.53-.96-2.98-1.13-6.57-1.44.44.8,1.02,1.85,1.45,2.65-.4.5-.94,1.17-1.35,1.66,2.37,2.15,2.86,2.59,5.48,7.08-.28.51-.64,1.19-.92,1.71-9.34-2.06-11.62-1.49-13.62-.98.77,4.95,13.71,12.32,13.85,12.39.13.06,14.91,8.92,22.48,17.72-.06.73-.17,1.71-.25,2.44q1.87,2.28,7.18,7.51h0s0,0-.88.35c1.2,4.57,4.59,7.89,6.79,11.89.43.48.88,2.81,1.27,4.86-.47-.5-1.08-1.17-1.54-1.66l-.07-.08c-.29-.66.14-1.69.31-2.4-14.91-16.14-34.76-26.07-51.03-40.48h.08c.41-.62.95-1.44,1.36-2.06-6.28-17.09-18.04-22.49-21.38-22.43,3.5,2.57,4.43,3.19,7.63,5.11-.58.03-1.36.07-1.95.1.38,1.47,1.13,3.38,1.79,4.75-10.08-6.83-11.16-7.1-15.73-8.19l-1.28,1.41q.46,3.5,13.55,14.26c-4.49,6.24-9.59,1.72-10.57.75.47-.36,1.09-.83,1.55-1.18h.01l-.27-.14c-1.13-.16-2.65-.3-3.8-.32h-.62s-.07,0-1.35.01c-1.37-.05-3.2-.21-4.56-.43l.23.19c-2.38.63-4.83-.03-7.29-.67-3.83-1.02-7.66-2.03-11.19,1.8-4.63,5.03-5.01,29.33,16.66,29.77q-6.3-5.7-7.04-7.66c.08.05,8.41,5.24,9.92,9.55.94-.56,2.29-1.16,3.33-1.5-.92-.82-1.93-2.21-2.32-3.36,4.89.01,11.91,1.4,17.68,7.88-.57-.09-1.34-.2-1.91-.28,33.12,19.69,41.49,56.97,36.33,68.11-.67.24-1.55.54-2.22.78q-2.48-1.22-5.15-4.14l-1.27,1.41c-.3-.49-.7-1.13-1-1.61.59,1.35,1,3.35.9,4.82-.61-.1-1.41-.24-2.03-.32,8.46,7.24.63,18.32,6.19,26.25,4.9,6.98,14.55,8.61,18.57,16.58q1.59,3.15,3.97,14.17c-1.11.16-2.57.55-3.61.97,0,.54-.02,1.28-.03,1.83-10.95,4.19-15.33-16.58-14.98-18.57l1.52,1.21c-.51-3.2-.85-4.14-5.84-6.7l.22-.16-.49-.05.23.17c-3.62-1.25-7.5-1.53-11.03-3.09-.3-1.16-.18-2.95.4-4.01-4.43-2.1-6.32-8.05-12.16-8.02-5.38.03-2.66,8.23-8.05,8.12-.6-.01-1.34-.4-1.91-.56-.57-4.5-1.12-4.67-3.41-5.38.38-.65,1.14-1.43,1.24-2.18.22-1.6-2.46-8.71-7.43-6.69-.18.07-14.34,9.82-7.54,17.37,8.37,9.29,20.81,2.99,30.32,7.91-.94,4.97-6.49,7.97-5.81,13.63.28,2.19.48,3.91,9.13,13.45,7.48,7.97,13.39,13.47,19.17,17.79l-1.46,1.02c-2.97-1.35-4.82-4.45-8.16-5.21.31.14,7.77,3.38,8.73,13.05l-1.17,1.3q8.26,1.77,9.83,7.82c-.16.52-.77,1.03-1.09,1.46,2.1,4.5,2.04,4.96,1.65,7.95-.57.09-1.33.18-1.9.27-.9,2.76-2.09,15.76.29,21.16h.01s0,0,.59-.6c-1.15,7.27-1.33,8.39-6.83,13.81-6.03,5.92-14.55,7.95-20.86,13.41-.62-2.08-.85-2.86-3.44-4.56,2.02,4.13,2.38,4.87-2.51,11.17-.12-.12-11.53-9.07-14,11.27,4.15,3.44,5.9,6.63,3.97,14.54-1.88,5.93-7.71,7.23-11,7.47.68-1.2,1.53-2.82,2.14-4.05q.73-16.06,3.3-17.67c0-2.3,0-7.71-3.47-9.28-1.89-.86-23,1-21.58,12.92,2.66,22.24,26.62,32.95,29.71,54.96,1.11,7.84-2.08,34.77-13.78,26.12-.36,5.81-5.75,21.08-13.58,16.95.78-1.25,1.83-2.91,2.61-4.16-4.3-17.26-23.57-22.86-29.96-38.5-13.7,9.18-9.36,31.39-8.81,33.9,2.21,10.24,11.36,15.55,16.73,23.55,9.2,13.72,6.33,30.83,12.78,45.33.3.68,1.31,1.14,1.87,1.63-13.6,2.5-18.57-8.63-23.97-32.94-4.54-20.46-6.8-27.08-14.27-21.14-1.82-6.87-2.57-9.71-.98-21.94,4.18-32.24-10.19-56.1-14.69-62.63.2,7.36-1.38,8.05-3.75,9.11-.3-.47-.69-1.09-.99-1.56q-8.42,5.44-10.8,2.32c-3.35-4.39-4.26-11.1-4.71-14.32-1.89-13.8-13.23-21.92-19.8-32.91-.77-1.29-1.71-3.07-2.5-4.35-.76-1.26-1.98-2.82-2.83-4.03-1.18.12-2.75.24-3.92.31q-.74,5.72-3.02,8.33c-.68-.94-1.45-2.29-1.96-3.33-.56.9-1.55,1.98-2.44,2.58-1.08-.33-2.6-.53-3.73-.45-.38.48-.88,1.12-1.26,1.6l-1.25-1.26-1.49.96c-.75-.78-1.33-2.22-1.45-3.29-8.84,20.41-32.33,28.41-41.29,48.72-8.65,19.59-2.87,42.15-12.62,61.52-1.45,2.87-3.33,7.15-6.08,8.81-11.22,6.75-62.22-85.26-46.28-115.83-.5-.36-1.18-.84-1.7-1.2-.11-1.08-.42-2.5-.8-3.51-.53-.15-1.23-.34-1.76-.49.31.66.85,1.49,1.03,2.2,1.43,5.64-6.08,11.44-10.5,10.77-8.16-1.22-6.68-10.88-12.44-14.21,5.68-.64,6.4-2.36,7.08-4.03-4.93.26-9.09-.58-15.79-5.61-10.19-8.61-11.59-13.89-12.05-15.63-8.84-4.73-18.27-3.44-27.71-2.15-10.2,1.39-20.4,2.79-29.87-3.45-1.79-1.17-4.12-2.84-5.96-3.93-4.47-2.65-9.34-2.4-14.2-2.15-4.45.22-8.91.45-13.06-1.55-10.95-5.27-9.89-21.09-22.15-25.2-.72-.24-1.76-.17-2.51-.25-.02.03-2.66,3.15-6.99,6.05h.04c4.3,1.05,4.94,2.04,6.76,10.52l13.07,28.02c7.14,7.96,33.36,7.26,34.58-14.15,4.98,5.3.92,13.03,5.01,18.57,4.09,5.55,12.54,4.21,16.29,10.31,1.16,1.9,1.36,5.19.92,7.37-1.43,7.12-11.45,26.39-39.16,48.31-.54.43-54.38,42.78-66.31,31.33l-44.6-117c-.5-1.33-1.19-3.11-1.66-4.46-2.89-8.56-2.21-13.57-1.41-19.39-5.51,7.36-5.41,9.9-5.2,14.96-5.39-7.38-7.13-11.59-7.77-18.72-5.53,9.56-6.06,16.71,4.97,36.27q8.31,14.74,20.8,59.59c5.32,19.09,10.96,29.29,20.14,36.4,4.32,3.35,12.37,9.58,14.12,13.77,2.29,5.46-.16,7.41-4.6,10.95q22.74,8.56,28.41,6.87,29.61-8.86,29.89-7.29c.24,1.3,5.19,32.29-41.82,91.29-12.66,15.88-19.31,29.84-22.3,41.76h0Zm-34.92-558.9c15.34-8.85,31.22-16.86,47.57-24.01,1.12-.28,2.31-.53,3.36-.67.47-.03,1.09.14,1.54.29-1.89,6.93-10.1,2.8-13.23,7.55q10.34-3.71,13.47-2.88c-.56.25-1.3.58-1.87.82-8.31,3.5-17.16,5.6-25.19,9.83q2.01-.6,2.53-.6c-.65.65-1.56.81-2.33,1.24l.62.04c-2.1,1.89-5.09,1.38-7.38,2.76l-.07.73.63-.14c-3.44,1.71-5.83,5.03-9.58,6.25-2.95.58-3.13.61-6.81,2.93q1.44-.75,2.35-.8c-1.61.54-2.66,2.51-4.74,1.86l-.18-.62c-.79,1.77-2.28,1.43-2.91,1.28q-5.73,5.16-5.83,5.39l1.35-.71c-1.26.88-2.62,1.6-3.95,2.38l1.34-.67c-.35.41-4.69,3.26-6.44,3.5.89-.82,1.85-1.55,2.69-2.42-2.21,1.17-4.35,2.49-6.52,3.75,1.12-.31,2.19-.83,3.37-.9-2.76,5.3-8.82,4.98-13.09,7.71h0c-4.4,2.49-4.75,2.54-6.21,2.75l.44-.46c-.12.08-13.28,9.1-16.18,10.9,1.32-1.08,2.74-2.04,3.97-3.23-2.7,1.71-11.71,9.29-16.48,13.38,10.56-9.24,21.51-18.05,32.84-26.36,10.02-7.34,20.33-14.31,30.91-20.89h0Zm313.77,454.62l.14.25c-.3-.79-.61-1.58-.92-2.36l.09.82.69,1.3h0Zm297,60.51c-.37.53-.74,1.06-1.13,1.58.32-2.36.05-4.76.41-7.12q.29-1.92,1.11-2.74l-.5.29c-1.57,1.26-3.28,3.54-4.07,11.04l-.23-.45c-.31.99.12,9.03.44,10.83.67,3.71,1.55,3.86,2.16,3.66-2.21-9.31,3.87-9.11,3.93-9.11-.8-3.43-.74-5.1,1.25-11.19-1.2-.35-3.52,2.38-3.36,3.2h0Zm-44.95-150.27v-.06h0s0,.06,0,.06h0Zm22.72,57.15l.14.05.04-.34-.18.29h0Zm-.36.14c1.32-2.83,1.98-4.53,2-5.84l-.03-.26c1.72,1.53,3.34,4.48,3.12,7.19-.05.73-.24,1.23-.35,1.56-1.39-3.14-2.95-3.55-5.2-1.37v-.05l-.05.14.1-.72c.03-.9.11-.98.18-1.05l.23.4h0Zm-2.97,23.57c1.09.08,3.39-3.7,4.38-5.73,0,0,.56-3.18.67-4.73.4-5.01-1.89-4.55-1.91-4.54-2.36,1.83-5.09,14.87-3.14,15h0Zm18.26,20.54c.26,4.88.42,5.03,1.32,5.8.37-1.32.8-3.12.99-4.49.03-.18,2.43-18.35-3.92-26.02l.08-.16q.67-.36.41-5.8c-.42,1.09-.88,2.16-1.26,3.27l.29,1.49q-2.13-1.42-2.67-11.4c4.42,1.85,3.08-4.94,1.79-7.95-1.7-4-2.2-3.93-6.15-3.44q-2.97-10.26-4.26-10.44-.69.54-1.01,1.87c-.75-4.76-6.16-4.75-7.27-3.8-.46.39-.63,1.28-.71,1.87-.33-1.74-.44-2.95-.5-5.39l.07.05c.14-.89.17-1.31.14-2.24l-.12-.86c-.38-8.4,2.28-16.93-1.07-25.22-2.48-6.15-10.94-2.09-13.6-7.96l-.16-.29.27.67c.99,7.27-2.09,14.8,1.38,21.91-.55-.14-1.3.22-1.8.47-1.11,4.24,1.01,12.33,5,15.42,1.43-.81,1.64-1.77.69-3.43q2.03,1.32,1.11,8.39l-1.39.2c-1.08,2.78.41,4.47,5.98,10.76,3.28-4-.61-8.4-3.22-10.67,1.17-.35,2.55-.68,5.49-.24-.6,1.72.27,2.4,1.11,2.79.6-.26,1.23-.54.49-2.4,3.47,1.17,4.74,4.8,7.51,6.75-.53-2.69-1.87-3.66-2.26-3.89.07-1.07.31-4.33,3.66-.79,1.99,2.11,3.71,5.38,4.28,6.45l-.49.05q-.46,2.85,4.12,9.38c-.97.82-1.62,1.02-2.4-.04l.57-.15q.08-1.08-.53-2.16c-.45.44-.67.65-.26,1.96l-.3-.64c-.88,2.35-.85,4.37.14,7.73l-.31-.1q.01.11,1.6,2.99l4.62,8.21q-1,3.32-8.29,11.42l.31-.88c-1.03-1.78-7.04-1.45-8.2,2.6-.7,2.47-.49,5.14-1.64,7.5,2.36-2.99,2.91-4.39,3.2-5.13,1.08,1.45,3,.98,4.71.51,1.9-.51,3.56-1.03,3.58,1.07.02,2.93-1.92,5.64-.98,8.68.92,2.95,4.12,3.86,5.61,6.3-.03-4.13,3.37-6.87,4.29-10.61h0Zm-20.44-.79l.03-.03-.81.9.78-.86h0Zm-17.16-100.44l-.03-.09-.03-.09v.09s.06.09.06.09h0Zm27.94,190.8c1.56.9,4.2-.08,4.85-1.83l.16-.94h-.03c-.23-1.79-2.26-3.22-4.36-3.08-1.69.39-1.82,1.67-1.87,2.09-.09.78-.3,2.85,1.25,3.76h0Zm29.05-8.35l.21-.14h0l-.2.14h0Zm-316.81-103.51c-.94-1.16-1.47-.54-1.49-.53,0,0-.24.65.59.68.09,0,.35-.01.84-.13l.06-.02h0Zm7.02,9.35c.46,9.14.14,15.81-.98,19.84-2.68,9.67-8.75.8-8.81.7-2.61-4.56-1.44-9.94-.08-16.18,1.43-6.57,2.13-10.82-.1-14.38-.36-.05-1.2-.27-1.39-1.42l.54.34-.27-.34c.45-.35.76-.46,1.4-.52.66-.02,4.14.14,8.3,5.28,1.08,1.34,2.67,3.87,1.17,5.86-.07.1-.12.17.2.82h0Zm157.2,60.36h-.05s.02,0,.02,0h.03Zm-156.1-62.2c-.26.06-.57.32-1.18,1.02.6,1.34.78,1.47.82,1.34l-.06-.62.23-.1.14-.14.38-.93-.32-.56h0Zm-282.3-265.98c8.07.72,12.44-4.43,13.59-6.02,4.24-5.9-3.93-15.98-14.28-22.33-3.8-2.33-7.6-1.26-11.4-.2-3.59,1.02-7.17,2.02-10.76.17q-.4-1.59,6.21-7.34c-5.45-2.97-9.12-4.59-14.13-2.11l-.67-.77.37.65.19.15c-4.72,2.53-7.82,7.96-11.41,14.25-4.16,7.29-5.73,8.58-9.55,11.71,1.5,1.08,2.06,1.49,3.26,3.88,1.01,2.02,2.55,5.07,4.21,5.45,4.62,1.05,8.52-.92,12.42-2.89,3.89-1.97,7.79-3.94,12.39-2.91,7.03,1.6,12.16,7.65,19.58,8.31h0Zm-10.97-37.22c-1.83,3.18,1.85,3.81,11.68,5.49.85-2.24,2.28-5.99,4.93-4.99-.05-1.22-.05-1.41-1.38-2.08-1.23-.61-1.3-.82-1.24-2.13,2.29.33,4.56-.33,6.96-2.02l.86-.65c-4.84-2.53-13.77.6-20.1,5l.48-.5s-1.34.96-1.95,1.62l.67-.58-.68.62-.08.04-.19.15.05.04h0Zm56.61,15.6q1.34.6,3.03-.07c-4.53,6.96-3.57,10.18,5.1,17.21,5.45,4.42,6.72,5.99,7.21,8.85-6.1-.93-9.01,10.09-8.56,13.83.73,5.98,6.06,8.85,10.34,11.17,1.26.67,1.3.87,1.41,1.35h.16l-.07.17c3.53,2.13,6.72.9,9.9-.32,2.26-.86,4.54-1.73,6.93-1.39l.12.02c-.28-21.44-.44-34.38-9.63-43.38-6.45-6.32-6.67-7.79-7.04-10.21.77-.99,2.51-1.6,3.74-1.84q-1.53-3.4,8.79-5.5c-1.6-1.26-1.88-1.6-1.09-5.14.56-2.48,1.39-6.24-6.34-6.61-8.45-.4-11.46,8.97-18.84,10.5-1.02-.05-1.65-.39-2.33-1.23-.07,4.39-3.79,7.96-2.83,12.59h0Zm392.69,349.82h.03s-.03,0-.03,0h0Zm-58.26-35.51h.03-.05.03Zm148.67-142.87l.06.05c-.54-.68-1.05-1.37-1.62-2.02l.03.08c.24.54.65,1.34,1.53,1.9h0Zm-3.38-4.46l-.29-.24h-.04l.33.24h0Zm-.05.28l-.83-.81v.1s.62.52.62.52l.21.19h0Zm.56-14.99c2.06-3.71,2.74-5.13,2.38-6.64l-.17-.35c.39.68.91,1.61,1.01,3.7.15,2.71-.54,6.07-1.15,9.04-1.15,5.56-1.7,8.6-.76,11.44q-1.57-1.95-3.12-3.1l.24.14q-.49-.42-.6-.6l.57.32c-3.1-3.85-1.95-7.56,1.6-13.95h0Zm-38.76,16.93l-.37.54.37-.54v-.02.02h0Zm17.04,222.13c.05-.02,4.73-1.49.9,3.19,1.13-1.28,2.49-3.14,3.27-4.66,2.21-4.36,1.64-9.47,3.74-13.86,2.55-5.38,7.42-9.19,9.82-14.68,1.68-3.82,1.54-5.49,1.31-8.26,3.07,3.85,4.38,1.62,4.81.49,1.05-2.82.73-8.46-6.77-19.33q1.02.67,1.68.94.07-.24-2.36-4.19c1.03.09,4.28.11,3.38-3.39l.28.41.43-.18c-.05-.45-.13-1.39-.71-3.3,2.57,2.32,4.2-.65,4.03-2.55-.05-.57-.35-1.28-.59-1.8h0s.1-.1.1-.1c.82-.92,7.93-9.03,3.95-9.12-1.41-.03-3.97,1.15-5.2,1.71q1-.67,1.34-1.26-.81-.37-3.15-.13c2.49-5.58-1.74-8.27-2.79-8.19-.79.25-.92.42-1.46,1.09l-.02-.49c-.07,0-7.53.41-10.47,19.04-.16-1.7-.37-2.03-1.41-3.13-1.39,2.73-2.02,4.46-2.7,7.43-2.47-.58-1.57-4.07-4.02-4.68-2.84,7.86-15.65,18.6-17.41,15.85l-.17-.46c-1.72,4.1-2.35,6.8-2.55,11.1-2.51-1.98-8.19-1.02-7.84-5.53-4.42,4.37-6.26,6.17-5.58,15.18.02.29,4.01,29.5,8.97,29.82,1.53.1,2.93-2.34,3.6-3.52.86,4.94,11.57,5.47,14.7,3.82-1.66,6.88,5.66,4.2,8.9,2.73h0Zm44.55-120.11c1.11,2.43,5.6-1.6,5.64-1.64.79-.73,1.23-1.47,1.3-2.21.11-1.07-.32-1.56-1.6-3.02-2.8-3.18-3.46-4.15-3.97-5.01-.18.09-.29-.02-.58-.54v.15c-.02.5-.08.94-.35,2.75-.45,2.94-1.2,7.86-.44,9.52h0Zm2.95,96.06h0l-.35-.14.35.14h0Zm-2.17-108.47h0l-.06-.09.06.09h0Zm25.33,126.16c-2.6.15-6.37,1.61-3.27,4.32l1.27.9-.25.26.06.04.26-.25c4.51,2.47,9.11,2.69,10.49.49.96-1.56-.38-2.96-.61-3.1.05.56.56,1.17.82,1.67-2.48-4.21-7.74-4.33-8.77-4.32h0Zm-37.9-114.58c.24-3.56-1.01-5.73-1.76-7.02l-.3.59c-.86,1.96-2.25,5.36-1.76,6.09.28-.12.45-.19,1.39-1.45-4.09,6.9-8.55,13.96-8.97,14.56h0s-.56.84-.56.84c-1.41,2.3-2.14,3.81-3.12,6.46,5.94-3.12,14.51-11.84,15.08-20.07h0ZM194.85,505.74c.71-1,2.89-4.04,5.14-8.71.79-1.63,1.34-2.98,1.55-3.49l-.48.23c-2.96,2.06-5.89,7.48-5.77,7.85h0c-1,2.15-1.1,3.12-.44,4.12h0Zm-58.5,17.94l.13-.19h0l-.14.19h0Zm53.96-15.23v.18c-.15.73-.41,1.53-1.27,4.08-1.59,4.7-4.26,12.57-1.99,11.11,2.04-1.3,5.81-7.76,7.64-11.72,2.26-4.9.92-4.84.48-4.82-.27.04-1.11.24-3.21,1.43-1.6.91-1.6.83-1.66-.25h0Zm69.97,28.6l.04-.04-.05.04h0Zm117.14,77.49c1.44.24,1.8.09,1.89-.01.16-.21-.43-.5-1-.48-.54.04-.75.27-.89.5h0Zm-186.06-177.93c1.21-.5,7.78-3.63,18-16.12,1.05-1.28,4.24-5.19,2.06-5.13l-.46.07c-4.01,1.3-6.72,4.75-10.53,6.4-.69,1.8-1.32,2.59-2.82,3.53.74.86-.63,2.48-4.22,6.02-1.89,1.87-7.67,7.57-2.02,5.24h0Zm620.63-73.2l.1.05-.09-.05h0Zm.2.11l-.1-.06.09.06h0Zm-394.8-56.9c1-.14,2.87-.41,4.96-.24q-1.3.23-1.43.32l.08.16c-.93.22-1.45.28-2.16.31.45,1.01,1.81,1.1,5.18.3l-.79.3.96.06c-.29.35-.85,1.02.58.86.8-.08,2.11-.46,2.53-.59l.26-.07c-.99-.44-1.91-.51-3.19-.24.49-.12.79-.25,1.27-.54l-.43-.08c1.05-.28,2.1-.57,3.16-.83-.06-.69-.16-1.85-3.77-1.78-2.58.14-5.37.79-8.29,1.91.54.11.83.16,1.08.13l-.02.02h0Zm456.51,147.29l-.45-.55h-.07c-.2.02-.01.5.6,1.6l-.09-1.05h0Zm-440.25-146.61l2.52.6c.72.08,1.42-.07,1.69-.12l-.24-.58.63-.16q2.19.88,6.6-1.01.51,1.52,8.32-1.15l-.32.56c-.54.5-.56.55-.63.73.16.05.64-.03,1.42-.24l.25-.49.06-.13c.18-.62.16-.69.09-.9-.94-.43-1.18-.46-3.51-.24l1.07-.94c-1.54-.03-2.93.77-4.44.84,0,.08.12.71,1.57.62-.89.32-1.83.48-2.74.76h-.04c-.52.04-1.32.1-4.7.9l.13.39c-.58-.1-1.03-.13-1.68-.11,1.03-.33,1.62-.54,2.47-.9-1.24-.33-2.14-.46-3.67-.53.77-.09,1.99-.4,2.72-.68.99.26,3.31.84,3.56-.13l-.26-.24c-.65-.19-1.36-.05-1.99-.34-1.68-.75-1.88-.71-2.09-.67q-.09.17.18.86c-2.2.39-4.29,1.38-6.59,1.23l-.45.23.06.49c-.14.09-.25.15-.92-.13l.1.6-.17.03c-.7-.17-1.51-.32-3-.2-.04.39-.04.68.05,1.14q3.82-.14,3.97-.09h0Zm444.14,154.24l.22-.27v-.04l-.86-.68.65.99h0Zm2.25,10.32l-.09-.2-.47-.07c-.43.14-.56.67-.43,1.56l-.13-.33c-.03.13-.04.23,1.27,2.91.56-.37,1.19-1.19-.14-3.88h0Zm-3.5-12.73v-.14s-.77-.47-.77-.47v.08c.08.71.65.68.77.53h0Zm-4.08-7.84l-.15-.48c-.39-.68-1.52-2.08-2.13-2.3v.03c.09.37.79,1.4,1.27,1.97l1.01.78h0Zm-206.63-127.64l.11-.3c-3.59-2.24-6.57-3.12-10.3-3.02-1.6.13-2.66.31-4.37.98.44-.11,1.56.26,3.66,1,3.93,1.36,9.87,3.42,10.91,1.35h0Zm-135.41-9.28h.11c5.03-.06,8.28-1.2,9.75-1.88l.61-.3c-1.77-1.6-6.17-3.14-8.88-3.08-3.46.2-3.95,3.94-2.83,4.82.54.43,1.05.43,1.24.43h0Zm99.46,7.51l-.5.08c1.19.17,2.41.06,3.61.21,4.14.52,8.13,1.88,12.3,2.29,2.7.26,4.61-.05,5.02-.46-.43-.97-7.4-2.06-7.47-2.06h-.05v.02s0,0,0,0h0c-1.75-.13-3.42-.67-5.16-.89-1.6.08-3.04-.51-4.46-1.11-1.39-.57-2.77-1.15-4.31-1.11-.91.08-1,.34-1.1.62.52.97,1.68,1.38,2.13,2.41h0Zm-122.91-13.16l-.05-.1c1.81-.53,3.39-.71,6.47-.94-2.25.25-2.73.83-3.17,1.62,3.36,1.12,6.3,3.27,9.84,3.92,3.05.56,4.8-.6,5.55-1.09.19-.14.75-.54,1.37-1.29l.04-.05q-.16-.13-1.09-.46c-1.2-.45-1.05-.79-.05-1.53-3.71.08-5.21-.7-7.11-1.69-2.24-1.17-4-1.72-7.98-1.69-1.44.03-2.31.09-3.69.21.2.98.26,1.98-1.66,1.65,1.4.31,2.23.44,3.57.55-1.53-.01-2.45-.05-3.78-.15.28.31,1,1.14,1.72,1.05h0Zm-280.53,64.22l-.07.05-.33.3c.93-.83,1.88-1.63,2.81-2.44-1.04.89-1.88,1.63-2.41,2.09h0Zm627.62,181.66v-.02s-.21-.24-.21-.24l.21.26h0Zm-592.79-197.6c-.51.15-1.03.12-1.56.08-.6-.04-1.2-.08-1.77.16-1.46.6-2.36,1.29-4.19,2.9.98-.99,1.33-1.41,1.36-1.79-.58-.32-3.04,1.07-6.4,3.62,5.45-4.84,6.05-5.66,6.44-6.22l-.18.03c-.82.58-1.99,1.54-3.46,2.85l.38-.66c-.22-.05-.43-.1-3.08,2.34l.12-.25c-.19-.03-.31-.05-2.07,1.24h.27s-.02.77-.02.77l.14.08-.79.55-.14.43.12.1s-4.01,1.55-3.95,2.64l.57-.05c-6.07,4.43-3.42,5.11-3.4,5.11,1.11.26,5.43-1.04,9.66-3.67.85-.52,1.96-1.26,2.76-1.85,1.43-1.06,2.57-2.51,4.21-3.31l-.23-.12c.16-.42.46-1.22,5.2-4.97h0Zm619.12,110.77c.02-.31-.31-1.2-.96-2.55l-.09-.18-.03.18c-.06.35-.15.99.07,1.7l-.37-.2c.37.43,1.35,1.59,1.38,1.05h0Zm-671.84-41.96q-3.61,2.41-10.34,9.97s-.62,2.09,1.17,2.11c1.2.01,2.77-.96,3.44-1.36-.72.57-1.1.86-1.62,1.22,7.59-3.82,9.13-2.07,9.62-.11.96-3.27,4.35-4.22,6.29-6.55,2.51-3.02.23-2.8-1-2.68-.68.07-.7.07-1.01,0,1.43-1.68,3.6-4.22,3.13-5.31,1.84.67,4.78-12.43,4.7-12.6l-.41-.47c4.27-1.8,11.26-7.89,11.51-10.02-.56-.64-1.45-.24-5.22,1.42q6.18-4.61,7.76-6.23c-.48.46-1.13,1.07-1.62,1.53-5.35,4.01-9.02,5.04-10.02,5.26.26-.48.59-.91.79-1.42l-.23-.04c2-1.47,3.39-2.79,4.52-4.29-.87.02-1.42.5-3.25,2.1q-2.7,2.28-2.73,2.43c-1.72,1.41-2.81,2.87-3.02,3.15,1.04-.98,2-2.06,3-3.08l-.04.24.18.16.65-.25c-1.91,1.81-2.92,3.49-2.93,3.5.52.19.73-.18,1.12-.93l.06.23c.34.03.55.01,1.77-.82l-7.63,6.53s4.18-2.33,5.64-3.53q-1.04,1.09-4.15,3.66l.77-.71q-2.86,1.91-4.68,3.93c.82-.56,1.34-.95,2.19-1.66-.47.47-1.7,1.73-2.19,2.94.27,0,.83,0,4.42-3.44-2.87,3.16-3.38,3.82-3.48,5,.41.42.42.43,2.21.49-1.53,1.12-3.61,3.38-4.1,4.73l.18.18.45-.14c-2.15,2.23-2.98,2.91-5.91,4.86h0Zm645.11,128.28l.19.24-.2-.25h0Zm-436.59-216.93c.13.32.23.6,1.5.98l.71-.81-.46-.58.49-.67c3.16,4.86,6.83,5.76,11.25,2.77-1.13-2.28-3.02-4.09-4.01-6.45,3.17-.84,6.09-3.42,6.94-6.13,1.7.79,3.73-.4,8.61-3.29,5.24-3.08,11.4-2.33,16.98-4.06.69-.21,1.56-.6,2.22-.86-3.81-.62-7.64-.9-11.36-.84-2.19.13-3.19.23-4.91.73-1.13.34-1.9,1.32-3,1.7-3.92,1.34-8.05,1.9-11.92,3.4.67.93.36,1.27-2.36,2.6-.12.06-12.27,7.78-12.07,9.45.96.56,2.18.44,3.09,1.15-1.21.39-1.43.46-1.7.93h0Zm438.58,135.05c-1.39-2.1-2.68-3.5-9.11-9.3-5.78-5.2-6.89-6.37-7.38-7.82l.2-.41c.85-.18,1.33-.28,4.46.73-.83-2.32-1.6-3.95-5.33-6.98-5.58-4.53-12.65-6.51-18.4-10.74-5.92-4.35-10.38-10.32-16.25-14.74-1.91-1.43-4.68-3.13-7.14-3.07-.64.07-.79.1-1.38.31,1.79,2.11,4.64,2.93,6.32,5.16l.02.03c8.94,5.71,28.61,26.39,38.05,36.34,8.2,8.62,10.24,10.64,12.09,12.03-1.59-2.07-2.39-3.4-3.43-5.68q.67.18,2.82,1.67c2.12,1.46,3.95,2.74,4.45,2.48h0Zm-498.42-154.81c1.39-.22,2.93-.97,6.57-2.81,4.46-2.26,5.07-2.49,5.89-2.3.18.39-.02,1.32-3.35,3.14.7.38,1.7.33,4.45-.24,2.1-.45,2.34-.48,3.43-.58.39-1.36.48-1.69-.07-2.45-.79-1.07-2.13-1.24-3.16-1.94,1.96-.07,5.59-.23,12.03-1.32,5.11-.87,3.5-3.63,3.46-3.66-.6-.43-2.02-.39-2.78-.37-5.2.35-9.95,1.86-11.34,2.6l-.04.17c-.73.1-1.47.05-2.17.26l-.72.6c.38.15.62.24,1.48.28l-.98.42c-1.35-.66-2.63-.2-4.39,1.61-.1-.79-1.27-1.4-.59-2.27-.61.28-2.46,1.13-3.97.52l-.68.07c-.79.48-1,1.52-1.89,1.9l.05-.7c-.65-.02-1.58,1.47-1.34,1.85.4.6.71,0,1.15-.84.91.27,1.85.21,2.79.17,1.1-.06,2.19-.12,3.25.34q-9.05,3.48-9.44,4.12c.29.85,2.38,1.43,2.4,1.43h0Zm498.03,160.09c4.96,2.69,9.64,5.86,14.81,8.14,5.58,2.46,4.75.12,4.31-1.15.39.52.77,1.05,1.15,1.56.14-.91.25-1.64,1.77-2.07l-.11-.28q-.55-3.21,1.72-5.87c-.36,2.07.34,4.16-.16,6.23l-.94.27-.08-.04c.71,3,.64,3.3.37,4.29l-.85-.16-.09-.08c1.53,1.99,4.05,2.51,5.89,4.04-.12,1.18-1.05,7.18-8.41,10.09,8.66,7.27,15.01,19.61,23.81,36.69q-.63-1.31-.73-1.83c.08.09,8.12,11.47,8.07,17.62l-.32.29c-2.64-1.52-2.29-4.91-4.24-6.85l-.33.47c.25,1,.88,1.88,1.01,2.93q-.76-.7-1.34-.68c.08,1.68,1.35,3.21.71,5-.87-.21-2.96-1.92-1.89-3.31l-.86-.53c-.45.6-.78,1.04.5,4.14-.92-.25-1.28-.29-2.57-.24h-.44c-1.48-.03-1.7-.1-2.65-.48.17.85.67,3.44.06,6.83v.04c-.86,3.87-2.94.92-3.62-.04-.69-1.02-1.07-1.66-2-3.21.2,1.07.4,2.14.6,3.21l.14.79c.33,1.83.65,3.69.96,5.53-1.74-1.28-2.54-1.5-3.02-.82-.31.43-.3,1.75-.3,2.38.02,2.14-.04,2.57-.29,3.48-2.82-3.28-5.31-4.99-8.59-5.91,2.72-.16,3.86-1.8,5.38-5.45,1.34-3.26,1.89-4.44,3.55-5.63-3.77-4.63-15.45-.12-17.13,4.29,1.09.37,1.38.52,2.53,1.34,5.67,4.68,9.07,13.92,9.75,17.41.94,4.82-1.17,4.09-1.75,3.65-4.39-3.36-6.45-8.56-9.96-12.62l-.35-.24c-.11.2-.16.27-.24,1.45-.51-1.4-.81-1.91-2.51-3.64-2-2.03-2.3-3.21-1.55-6.01,1.16-3.69,7.54-21.72,19.29-14.95-6.8-13.18-3.83-13.24-2.07-13.27,3.53-.07,3.58-16.33-9.48-28.68,1.64,1.14,3.56,1.84,5.03,3.25q-.81-1.25-3.58-4.71l-.03.45c-.4.39-.68.67-2.49-.01-.15-.06-14.02-7.06-6.06-11.34-.92-.37-2.1-1.15-2.62-2-2.42-3.85-3.82-8.23-6.21-12.1-.46-.5-1.06-1.17-1.51-1.67h0Z"/>
  </g>
  <g>
    <path class="cls-6" d="m251.03,1001.52v-294.12s-126.61,62.97-196.99,129.13c-27.66,26-46.64,52.5-45.83,75.86.61,17.32,11.59,31.3,28.59,42.57,64.22,42.59,214.23,46.56,214.23,46.56h0Z"/>
    <path class="cls-11" d="m251.8,858.61c1.38.42,2.16,1.89,1.74,3.27-.42,1.38-1.89,2.16-3.27,1.74-.04-.01-13.16-4.11-32.94-5.01-5.26-.24-10.99-.25-17.06.1-5.29.31-10.85.9-16.59,1.86l-37.58,6.31c-1.43.24-2.78-.73-3.02-2.16-.24-1.43.73-2.78,2.16-3.02l37.58-6.31c5.92-.99,11.67-1.6,17.16-1.92,6.24-.36,12.14-.35,17.58-.1,20.48.94,34.22,5.23,34.26,5.24h0Z"/>
    <path class="cls-11" d="m170.3,890.11c-.91,1.13-2.56,1.31-3.69.4-1.13-.91-1.31-2.56-.4-3.69,7.26-9,15.05-15.91,23.81-21.28,8.74-5.36,18.42-9.16,29.51-11.96,1.41-.35,2.83.5,3.18,1.91.35,1.41-.5,2.83-1.91,3.18-10.59,2.67-19.79,6.28-28.05,11.34-8.24,5.05-15.58,11.57-22.45,20.09h0Z"/>
  </g>
  <g>
    <path class="cls-6" d="m829.63,1001.52v-294.12s126.61,62.97,196.99,129.13c27.66,26,46.64,52.5,45.83,75.86-.61,17.32-11.59,31.3-28.59,42.57-64.22,42.59-214.23,46.56-214.23,46.56h0Z"/>
    <path class="cls-11" d="m828.86,858.61c-1.38.42-2.16,1.89-1.74,3.27.43,1.38,1.89,2.16,3.27,1.74.04-.01,13.16-4.11,32.94-5.01,5.26-.24,10.99-.25,17.06.1,5.29.31,10.85.9,16.59,1.86l37.58,6.31c1.43.24,2.78-.73,3.02-2.16.24-1.43-.73-2.78-2.16-3.02l-37.58-6.31c-5.92-.99-11.67-1.6-17.17-1.92-6.24-.36-12.14-.35-17.58-.1-20.48.94-34.22,5.23-34.26,5.24h0Z"/>
    <path class="cls-11" d="m910.37,890.11c.91,1.13,2.56,1.31,3.69.4,1.13-.91,1.31-2.56.4-3.69-7.26-9-15.05-15.91-23.81-21.28-8.74-5.36-18.42-9.16-29.51-11.96-1.41-.35-2.83.5-3.18,1.91-.35,1.41.5,2.83,1.91,3.18,10.59,2.67,19.79,6.28,28.05,11.34,8.24,5.05,15.58,11.57,22.45,20.09h0Z"/>
  </g>
  <g>
    <path class="cls-12" d="m613.03,675.54c-1.74,18.14-3.36,63.14,8.06,79.26-43.66,38.29-127.62,30.9-155.16,4.7,6.05-21.49,6.05-65.83,0-79.93s71.2-24.85,71.2-24.85l75.9,20.82Z"/>
    <path class="cls-12" d="m682.21,594.61c0,31.08-27.75,39.96-45,39.96s-12.26-27.75-12.26-45.19,2.39-34.74,19.65-34.74,37.61,8.06,37.61,39.97Z"/>
    <path class="cls-12" d="m385.34,600.34c0,31.08,27.75,39.96,45,39.96s12.26-27.75,12.26-45.19-2.4-34.74-19.65-34.74-37.61,8.06-37.61,39.97Z"/>
    <path class="cls-1" d="m571.47,731.74c-31.65,14.33-79.94,12.54-101.47,0,.41-9.87.65-22.29,0-29.43,25.49,8.16,101.47,29.43,101.47,29.43Z"/>
    <path class="cls-13" d="m415.56,569.42c0,96.72,48.36,164.56,135.68,164.56s107.47-114.19,107.47-164.56-81.27-108.14-124.93-108.14c-106.13,0-118.22,108.14-118.22,108.14Z"/>
    <ellipse class="cls-9" cx="582.97" cy="600.73" rx="7.56" ry="12.85"/>
    <ellipse class="cls-9" cx="500.61" cy="600.73" rx="7.56" ry="12.85"/>
    <path class="cls-10" d="m572.69,582.2s.05-.17.13-.5c.11-.31.24-.86.5-1.37.49-1.09,1.31-2.56,2.61-3.88.64-.7,1.37-1.41,2.24-1.96.83-.63,1.79-1.21,2.81-1.68,1.05-.42,2.14-.88,3.32-1.09,1.17-.27,2.38-.41,3.61-.43,1.23-.01,2.46.07,3.65.33,1.2.17,2.35.6,3.43,1.04,1.09.37,2.05,1.1,2.94,1.69.91.53,1.65,1.29,2.29,2.02,1.33,1.33,2.09,2.87,2.53,3.98.44,1.12.58,1.84.57,1.84l.06.32c.04.18-.09.36-.27.4-.07.01-.14,0-.2-.03,0,0-.44-.21-1.22-.57-.76-.38-1.87-.87-3.24-1.34-.68-.27-1.42-.53-2.23-.71-.8-.2-1.64-.46-2.54-.56-1.78-.3-3.71-.47-5.63-.37-3.86-.04-7.7.81-10.45,1.76-2.79.89-4.51,1.78-4.51,1.78-.17.09-.37.02-.46-.15-.05-.08-.06-.16-.03-.24l.08-.31Z"/>
    <path class="cls-10" d="m481.04,582.19s.14-.72.59-1.76c.44-1.03,1.17-2.39,2.28-3.64.55-.64,1.17-1.32,1.92-1.85.74-.55,1.51-1.21,2.42-1.62,1.76-.94,3.87-1.53,6.08-1.72,2.21-.16,4.56.18,6.67.99,2.11.9,3.95,2.17,5.15,3.66.62.72,1.07,1.52,1.43,2.19.37.65.51,1.43.66,1.97.24,1.15.21,1.84.21,1.84v.34c-.02.18-.18.33-.36.32-.06,0-.12-.02-.17-.05,0,0-.36-.23-1-.65-.59-.48-1.58-.89-2.74-1.43-1.19-.47-2.63-.88-4.22-1.09-1.6-.19-3.32-.22-5.04-.05-3.45.2-6.88,1.02-9.37,1.84-2.51.78-4.14,1.44-4.14,1.44-.16.06-.34-.01-.41-.17-.02-.06-.03-.12-.02-.18l.07-.37Z"/>
    <path class="cls-10" d="m556.53,630.11s.19.57.51,1.56c.29.96.89,2.34,1.51,4.01,1.28,3.34,3.09,7.83,4.06,12.79.42,2.49.73,5.14,0,7.83-.34,1.33-1.13,2.67-2.2,3.57-1.07.9-2.3,1.33-3.35,1.49-2.13.34-3.69-.14-4.79-.32-1.06-.31-1.65-.51-1.65-.51-.33-.12-.51-.49-.39-.82.09-.25.31-.42.57-.43h.05s.61-.03,1.62-.03c.99-.05,2.5-.12,3.9-.64,1.42-.55,2.39-1.45,2.67-3.2.31-1.73.05-3.98-.38-6.21-.89-4.49-2.25-9.13-2.88-12.76-.35-1.81-.46-3.36-.54-4.48-.06-1.14.02-1.71.02-1.71v-.06c.06-.35.39-.59.75-.54.24.04.44.22.51.44Z"/>
    <path class="cls-10" d="m516.2,680.04s1.02.42,2.75,1.24c.87.47,1.92.82,3.05,1.21,1.12.42,2.39.86,3.9,1.24,1.45.45,3.06.81,4.77,1.16,1.68.42,3.54.56,5.39.92,1.89.21,3.85.4,5.84.54,2,.13,4.03.19,6.06.17,2.04.1,4.08-.1,6.08-.16,1.98-.23,3.99-.23,5.86-.57,1.9-.26,3.73-.48,5.44-.86,1.75-.28,3.29-.77,4.81-1.08,1.42-.47,2.8-.82,3.96-1.25,1.11-.49,2.18-.82,2.98-1.2,1.55-.81,2.52-1.26,2.52-1.26l.19-.09c.64-.3,1.4-.02,1.7.61.22.47.13,1-.19,1.37,0,0-.74.86-2.17,2.35-1.5,1.37-3.83,3.12-6.91,4.72-1.56.67-3.23,1.62-5.1,2.17-1.85.66-3.82,1.32-5.9,1.74-2.08.54-4.25.81-6.47,1.16-2.23.15-4.49.42-6.76.38-2.27.07-4.54-.15-6.78-.34-2.23-.18-4.41-.66-6.5-1.08-2.08-.55-4.09-1-5.93-1.79-.92-.35-1.81-.7-2.68-1.03-.83-.43-1.63-.84-2.4-1.24-1.54-.73-2.9-1.63-4.07-2.51-1.21-.81-2.16-1.57-2.79-2.26-1.36-1.34-2.11-2.15-2.11-2.15-.48-.53-.45-1.36.08-1.84.38-.35.92-.43,1.38-.24Z"/>
    <path class="cls-2" d="m649.33,514.51c3.71-4.89,8.61-14.58-3.59-21.59-16.97-9.74,13.27-18.83.87-34.63-12.4-15.8-10.12-50.12-34.6-44.16-24.48,5.97-29.21-10.96-43.52-5.41-5.54,2.15-10.76,1.29-14.79-1.09-10.84-6.4-34.09-28.85-64.72-2.79-7.5,6.38-13.6,9-19.06,10.02-32.84,6.16-79.51,21.52-66.22,67.95,8.05,28.14-3.48,22.29-6.31,36.15-4.54,22.22,11.92,20.1,15.1,29.56.87,2.6.18,9.65,8.23,13.12l9.45,4.89c8.05,3.46,13.63-5.64,21.68-17.98,8.05-12.34,8.27-2.6,33.94-3.9,17.79-.9,30.09-19.85,35.96-31.4,3.37-6.62,8.77-12,15.48-15.21,8.66-4.14,19.19-7.45,20.2.34,1.74,13.42,18.04,41.91,26.09,30.44,8.05-11.47,28.68-21.5,33.03-14.36,4.35,7.14,7.19,40.24,22.93,31.84"/>
    <path class="cls-4" d="m427.47,565.17c8.69,4.2,13.15-5.78,21.83-20.76,8.69-14.98,8.92-3.15,36.62-4.73,27.7-1.58,35.9-41.33,35.9-41.33,0,0,38.28-22.27,40.16-5.98,1.88,16.29,16.2,38.63,24.88,24.7,8.69-13.93,30.05-16.03,34.74-7.36,4.69,8.67,9.83,49.08,20.19,34.43,10.16-14.38,10.74,36.49,10.74,48.03,0,1.27,1.01,2.31,2.28,2.34l.53.02c1.32.04,2.41-1.02,2.41-2.35l3.46-38.16c0-8.71.84-19.41-2.22-33.92-1.99-9.42-.81-10.87,3.34-17.03,4.01-5.94,9.29-17.7-3.88-26.21-18.31-11.83,14.32-22.86.94-42.05-13.38-19.18-10.92-60.86-37.33-53.61-26.41,7.25-31.52-13.31-46.95-6.57-5.97,2.61-11.61,1.56-15.95-1.32-11.69-7.77-36.78-35.03-69.83-3.39-8.09,7.74-14.68,10.93-20.56,12.17-35.43,7.48-85.78,26.13-71.45,82.5,8.69,34.16-3.76,27.07-6.81,43.89-4.89,26.98,16.06,51.22,19.48,62.71.74,2.49,6.11,15.49,6.82,21.05.16,1.29,1.01,2.38,2.31,2.39h0c1.36.02,2.46-1.12,2.37-2.48-.47-7.74-1.28-30.48,5.95-26.98h0Z"/>
  </g>
  <g>
    <polygon class="cls-4" points="250.86 620.27 829.52 620.27 829.52 1001.32 250.86 1001.32 250.86 620.27 250.86 620.27"/>
    <polygon class="cls-8" points="250.86 1001.32 829.52 1001.32 829.52 1045.47 250.86 1045.47 250.86 1001.32 250.86 1001.32"/>
    <path class="cls-7" d="m540.19,823.41c125.56,0,234.57,62.66,289.33,154.57v23.34H250.86v-23.34c54.76-91.91,163.77-154.57,289.33-154.57h0Z"/>
    <path class="cls-3" d="m540.3,820.84c2.33.79,4.86-.46,5.65-2.79.79-2.33-.46-4.86-2.79-5.65-11.28-3.82-19.76-11.98-24.47-21.31-2.78-5.5-4.24-11.36-4.17-16.93.06-5.37,1.56-10.47,4.67-14.66,3.76-5.06,10-8.89,19.08-10.42,3.49-.59,7.04-.63,10.39-.12,4.3.65,8.23,2.22,11.23,4.74,2.87,2.41,4.92,5.76,5.65,10.09.4,2.38.41,5.08-.05,8.12-.73,4.83-2.86,9.39-6.05,12.62-2.73,2.75-6.26,4.52-10.35,4.56-3.98.04-7.23-2.96-8.93-6.48-.61-1.27-1.01-2.59-1.16-3.84-.13-1.11-.07-2.13.22-2.94.39-1.12,1.46-1.96,3.39-2.1,2.46-.18,4.3-2.32,4.12-4.78-.18-2.46-2.32-4.3-4.78-4.12-6.03.46-9.59,3.67-11.14,8.07-.75,2.14-.95,4.5-.67,6.89.26,2.24.95,4.54,1.99,6.71,3.02,6.26,9.17,11.59,17.03,11.51,6.65-.07,12.3-2.84,16.6-7.18,4.55-4.59,7.56-10.94,8.57-17.57.6-3.97.57-7.61.02-10.92-1.11-6.6-4.28-11.73-8.72-15.46-4.31-3.62-9.77-5.84-15.63-6.73-4.26-.65-8.75-.58-13.19.16-11.56,1.94-19.69,7.07-24.77,13.91-4.28,5.76-6.33,12.66-6.41,19.86-.08,7.01,1.71,14.3,5.12,21.05,5.69,11.26,15.94,21.13,29.57,25.74h0Z"/>
  </g>
</svg>