<?xml version="1.0" encoding="UTF-8"?>
<svg id="Layer_1" data-name="Layer 1" xmlns="http://www.w3.org/2000/svg" viewBox="0 0 1313.39 1253.71">
  <defs>
    <style>
      .cls-1 {
        fill: #fff;
      }

      .cls-2 {
        fill: #292f52;
      }

      .cls-3, .cls-4 {
        fill: #ff7d71;
      }

      .cls-4, .cls-5, .cls-6, .cls-7, .cls-8, .cls-9 {
        fill-rule: evenodd;
      }

      .cls-5 {
        fill: #30334a;
      }

      .cls-10 {
        fill: #ffa993;
      }

      .cls-6, .cls-11 {
        fill: #3a3e5c;
      }

      .cls-12, .cls-8 {
        fill: #26283a;
      }

      .cls-13 {
        fill: #fec99e;
      }

      .cls-14 {
        fill: #ff7167;
      }

      .cls-7 {
        fill: #fed4b0;
      }

      .cls-15 {
        fill: #ffb29e;
      }

      .cls-9 {
        fill: #fe7a5c;
      }
    </style>
  </defs>
  <g>
    <path class="cls-7" d="m647.57,278.59c329.32,0,596.29,266.97,596.29,596.29,0,61.51-9.32,120.84-26.61,176.66H77.89c-17.29-55.82-26.61-115.15-26.61-176.66,0-329.32,266.97-596.29,596.29-596.29h0Z"/>
    <path class="cls-13" d="m1052,811.17l-.14-.46.14.45v.02h0Zm156.35,240.37h-3.19c.15-1.95.64-9.22.35-11.77q-.62.53-.93.53l.72-1.18.32.21c-.06-1.26-.1-1.71-.22-2.24.76-1.07,1.17-1.46,1.79-1.67,2.32-.27,3.13,7.46,1.17,16.11h0Zm-28.21,0h-49.31c-1.69-2.44-1.49-4.29-1.12-7.63-3.73,7.39-4.44,7.33-5.41,7.24-2.62-4.45,3.61-9.75-1.34-13.98l-.05.02c3.42-2.4,8.26-2.09,11.06-5.71-7.58,2.14-11.64-4.83-16.34-12.89.84-1.4,1.12-1.51,1.8-1.76.53.37,1.78,1.19,1.15,4.88,3.84-4.71,6.91-6.29,10.34-7.23,7.89-.79,7.29,4.59,5.97,16.37l.24-.58c-.03.13-2.37,12.85,1.72,12.21,10.1-1.57,11.15-15.74,22.23-15.93,8.16-.13,15.08,14.31,19.05,24.97h0Zm-119.24,0h-8.41c.02-.74.08-1.55.2-2.46.98-7.85.7-8.25-1.09-10.79-1.77,1.74-3.71,7.45-5.3,13.25h-10.45c.03-3.91.25-7.82,1.38-11.65,2.53-8.61,9.13-15.16,11.96-23.62,1.49-4.44,2.27-9.11,4.17-13.42.34-.76.76-1.73,1.43-2.7,1.11-1.59,2.88-2.69,5.28-3.27,8.66-2.1,17.58-2.61,26.29-4.37.98-.21,2.3-.5,3.29-.72.14,1.12.26,2.69-.04,3.78q-.54,1.97-6.43,8.92l1.14-1.5c-2.9,2.83-3.42,3.34-10.36,2.47-7.94-1-11.93-1.49-18.33,3.09-5.88,4.22-7.11,6.5-4.24,7.85,4.19,1.97,8.43,1.39,12.68.81,3.08-.44,6.19-.86,9.26-.29h0c-6.69,1.7-9.85,18.48-15.45,11.39.22,7.82,3.3,15.34,3.04,23.21h0Zm-121.15,0h-25.74c-2.94-6.33-6.44-14.49-10.71-24.53-18.71-44.04-33.07-73.76-42.32-75.6l1.62-.11c6.08-.07,10.72,3.16,12.96,4.71,6.55,4.55,10.5,11.68,16.58,16.72,4.77,3.95,10.75,6.01,15.55,9.9.06.06,6.07,4.98,4.89,9.19q-.92.21-2.13-.28c1.78,1.18,2.77,2.12,4.25,4.04-.16-1.37-.08-1.71.79-3.23,2.94.99,4.42,1.49,5.85,4.35,2,3.96,1.1,8.53,2.64,12.59,2.68,7.03,7.46,12.89,11.06,19.4q4.28-2.92,15.71,8.1l.05.06h.04l.53.45-.35.06,1.04,1.04-1.27-.34c-.85.33-2.3,2.4-.21,4.49-5.93,3.29-7.37.82-13.47-9.57,1.32,4.08,3.57,11,2.64,18.6h0Zm-546.56,0h-196.16c-10.83-13.51-19.4-31.59-12.57-43.71-12.17-13.2.58-34.47-15.07-46.55-.6.58-1.41,1.36-2.01,1.94-.8-.28-1.86-.64-2.66-.91-.96,1.18-2.92,2.29-4.43,2.51q-21.78-21.84-27.94-17.26c-29.21,21.68-32.79,13.31-38.73-.55-.14-.32-14.01-40.2-17.66-95.85-1.5-22.71,7.64-44.31,6.95-66.94-.13.84-.29,1.95-.42,2.79,3.35-47.81,54.69-131.74,55.2-132.49,7.88-11.45,11.46-15.85,13.68-16.79,3.15-1.33,5.27,1.44,7.96,1.97,2.43.5,3.41.12,13.09-6.54,8.82-6.07,12.25-7.87,17.5-9.19q2.24-.56,25.03-2.23c5.09-.14,8.46-.23,3.67,10.46-3.33,7.46-9.15,13.78-10.11,22.31,2.23,15.6,39.46,44.97,46.4,22.56,3.21-10.35,7.11-12.56,9.83-12.59,1.17-.02,2.75-.15,3.88.06,11.25,2.11,18.03,12.58,28.89,15.43,5.4,1.41,10.44-.16,15.47-1.73,4.84-1.52,9.68-3.04,14.84-1.9.75,1.61,2,3.62,3.12,4.99,15.53-1.89,22.26-15.72,27.68-26.83,10.35-22.28,6.76-26.84,5.41-27.7-.02,0-25.39.71-30.84,1.06-10.86.69-17.07-1.38-19.1-2.06.35-.64.82-1.52,1.18-2.17-1.58-.48-3.8-.76-5.46-.77.77-4.18.29-8.58,2.27-12.53-6.75-7.23,2.86-13.77,1.94-20.88-4.67-3.18-8.72-4.41-14.48-.71-.14,1.68.27,4.02.98,5.55-1.53.05-3.57.31-5.05.67-.13.77-.29,1.8-.42,2.58-.7-1.71-1.87-3.92-2.93-5.45-1.82,7.84,4.06,14.69,2.88,22.44-.46-.66-1.07-1.54-1.52-2.19-.01,1.41-.77,3.36-1.76,4.38-1.13-.87-3.16-1.49-4.57-1.32.51.68,1.2,1.59,1.71,2.27-1.18,1.07-2.83,2.43-4.09,3.4-.13,1.84-.35,4.29-.55,6.12-.68.44-1.58,1.02-2.27,1.45-10.03-6.69-3.96-14.46-1.96-17.02-1.63-.1-5.04-.34-5.97-5.14-1.11-5.72.75-14.63.76-14.71,2.05-9.32-4.49-16.65-5.78-25.19-.34-2.23-1.9-4.96-2.12-7.2-.2-2.01.61-4.82,1.73-6.5-.36-.73-.82-1.71-1.18-2.44-.71.25-1.65.59-2.36.84-.7-.36-1.63-.84-2.33-1.2-7.42,5.35-10.21,7.35-9.11,18.09,1.12,10.99,12.05,17.12,13.79,27.8-2.08.79-4.05.31-6.03-.18-1.37-.34-2.74-.67-4.16-.58l-.12.12c.03.1-1.03,13.81-7.34,21.21-2.71-.32-4.94.9-7.17,2.13-2.09,1.15-4.18,2.3-6.68,2.17-4.19-7.33,9.53-7.28,13.07-12.22,11.01-15.4-5.24-43.22-5.41-43.48-3.68-5.83-8.94-3.93-14.21-2.03-2.7.97-5.4,1.95-7.9,1.88-.04,0-.07,0-1.86.11-.16.04-24.03,19.22-36.5,40.85-8.33,14.47-17.06,22.85-26.65,25.6-3.48-2.52-3.04-7.02-5.17-10.21-.76.2-1.76.47-2.51.67q4.93-11.17,7.4-15.9h0l-.54.67q19.27-40.77,35.57-40.11c8.54.34,29.93-25.8,21.69-40.28,4.9-3.03,5.13-3.12,12.62-5.08,4.87-12.25,56.76-40.98,57.23-41.15l1.8,1.71c5.71-6.14,9-14.03,14.66-20.18.93-.94,2.25-2.13,3.25-3l.27-.13c4.4-3.64,6.21-3.9,8.72-4.26-4.34,4.65-7.37,10.5-12.88,14.08.85-.07,1.97-.15,2.83-.23q-2.76,4.28-6.23,4.58c.34-.81.81-1.9,1.15-2.71-2.85,4.61-2.66,4.96-1.15,7.72,0,0,4.55-.54,10.82-1.01-.63.43-1.46,1-2.1,1.43.4.71.93,1.66,1.32,2.36.24-.02,23.82-2.15,28.81-5.42,7.46-11.09,13.8-18.35,18.87-21.55,1.32.75,2.82,2.25,3.63,3.52,8.44-.97,6.47-10.17,11.05-14.22q2.92-2.58,26.38-4c-.26-.93-.6-2.19-.86-3.13-.8-.41-1.87-.97-2.68-1.4l-.34-1.75q-20.98,3.73-24.87,2.38,6.34-9.64,30.47-28.25c-9.76-6.94-12.48,1.37-13.38,4.11-32.72,12.67-31.07,22.58-30.29,27.34q-35.01,30.49-43.58,31.04c.31-.89.73-2.09,1.04-2.99q-7.06,7.27-9.12,8.84c-.7-.32-1.62-.74-2.32-1.05q4.43-1.64,5.13-6.94c9.75,1.89,15.98-17.61,18.65-25.94-7.29,5.88-10.42,7.59-16.15,9.74-.62-.43-1.45-1-2.06-1.43.46-2.66,2.24-4.93,2.32-7.71,5.99-5.56,9.42-13.69,17.37-17.28,5.27-2.48,5.95-2.79,10.44-4.97,12.92-6.35,24.47-14.99,36.92-22.14l.28-.07c5.65-3.63,6.99-4.49,8.18-5.6h0s0,0,0,0l1.19-1.17c-1.73.47-4.11.83-5.9.95,4.61-2.78,9.8-4.26,14.56-6.72-.49.58-1.14,1.34-1.63,1.92,6.05-.47,10.54-4.84,16.12-6.47-.03.74-.08,1.72-.12,2.45q6.15-1.61,7.17-2.54c.84.14,1.95.33,2.79.47,2.27-3.05,2.68-3.6,8.16-5.52.7.4,1.62.93,2.31,1.33-1.48.92-3.4,2.22-4.81,3.26,5.12-2.46,10.3-3.27,12.52-3.61-.62.44-1.42,1.02-2.03,1.46.89-.27,2.08-.63,2.97-.9.76.44,1.77,1.03,2.53,1.48-1.75.59-4.07,1.38-5.81,1.99q8.21.55,9.2.68c.15.73.34,1.69.49,2.42,13.79,2.98,18.95,4.09,20.4,7.55,1.96,4.66-6.38,10.35-10.26,11.12-7.41,1.48-12.93-4.29-19.73-5.13q4.34,17.46,9.19,16.26c-.36-1.54-1.18-3.54-1.99-4.91,10.03-.31,17.52-8.86,27.74-8.54.48.61,1.12,1.41,1.59,2.02q3.83-8.57,4.6-11.52c-.4-.65-.92-1.51-1.32-2.16,6.67-3.45,10.13-2.08,10.31,4.12-5.82.23-6.95.42-7.78,4.91,6.88.57,12.74-2.4,18.59-5.37,5.77-2.92,11.55-5.85,18.32-5.38-1.35.98-3.1,2.36-4.39,3.43,20.43-.98,23.43-2.57,27.22-4.56q-.24-.33-7.75-6,33.67,10.07,34.99,9.65c-4.19-4.4-5.94-8.51-5.19-12.2,1.19-5.86,8.78-6.33,10.13-12.05,1.58.12,3.69.6,5.19,1.14h.47c.73.26,1.7.6,2.43.84,3.5,7.53,2.09,16.3,5.98,23.73-2.1,5.51-2.32,6.09-9.68,9.19,17.28-1.16,15.4-7.89,14.39-11.51,7.35-3.79,11.18,3.82,16.93,5.23h.05c-7.96-6.84-18.96-9.93-24.49-19.77q3.78-2.5,4.83-6.47c.62.46,1.47,1.05,2.09,1.5.07,1.94.41,4.53.8,6.44q1.59.79,10.97,1.39-.91-1.32-7.68-4.72c.73.18,1.7.41,2.44.59.58-.47,1.34-1.1,1.93-1.56-.63-.41-1.46-.95-2.1-1.36.06.03,11.7,2.62,18.96,2.9-3.41-4.73-5.32-5.88-11.31-6.85h0s-.02,0,1.11-.49c6.54-1.65,13.51.24,19.92-2.43-.71-.31-1.67-.71-2.4-1.01-1.4-6.75,2.11-6.69,16.84-6.44,1.06-1.12,3-2.12,4.5-2.44,0,0,4.14,1.23,14.4.72-.63-.48-1.46-1.13-2.1-1.61.68,0,1.59,0,2.28,0q2.59-3.38,6.07-4.14c14.85-.31,28.25,5.09,41.65,10.49,13.34,5.37,26.67,10.74,41.42,10.48.41-.58.96-1.38,1.36-1.97-.22-.74-.5-1.72-.72-2.45,14.56,3.64,27.13,14.81,43.53,11.49-.24-.84-.57-1.95-.81-2.79,7.38-2.39,14.21,1.36,21.31,1.97,0,0,.02,0-1.66-.38l-1.79-1.55q2.72-.12,7.41.38c-1.74-.73-4.04-1.71-5.77-2.46-.25-.7-.6-1.63-.86-2.34,27.34-2.29,29.25-.75,36.33,4.92,8.21,6.6,17.31,5.82,26.41,5.03,4.61-.41,9.23-.8,13.73-.24,11.77,1.49,23.66,1.63,35.43,3.09,1.46.18,3.3,1.06,4.53,1.85-.69-.21-1.61-.5-2.29-.72,9.73,3.53,11.27,3.8,15.88,4.57q-10.54-4.42-11.79-6.97c23.16-1.27,79.64,14.24,88.88,24.41-.78,0-1.81,0-2.58,0,1.11.53,6.95,3.34,11.79,7.07-13.5,7.08-20.99-6.88-31.83-9.08q5.47,3.65,7.39,5.06c-.4.6-.93,1.4-1.32,1.99,9.39,4.98,19.53,8.48,28.26,14.71-3.14-1.19-3.7-1.4-8.15-1.79.54.99,1.27,2.3,1.8,3.28-.49.62-1.17,1.45-1.67,2.05,2.94,2.67,3.55,3.22,6.8,8.79-.34.63-.79,1.48-1.14,2.12-11.58-2.56-14.42-1.84-16.9-1.21.96,6.14,17.01,15.29,17.18,15.38.16.07,18.49,11.06,27.89,21.99-.08.91-.21,2.12-.31,3.02q2.32,2.83,8.9,9.32h0s0,0-1.1.44c1.49,5.67,5.69,9.8,8.42,14.76.54.6,1.09,3.48,1.58,6.03-.58-.62-1.34-1.45-1.92-2.06l-.08-.1c-.37-.82.18-2.1.39-2.97-18.5-20.03-43.12-32.35-63.32-50.23h.1c.5-.77,1.18-1.79,1.68-2.55-7.8-21.21-22.38-27.91-26.53-27.83,4.34,3.18,5.49,3.95,9.47,6.34-.72.04-1.69.09-2.42.13.47,1.83,1.4,4.19,2.22,5.9-12.51-8.48-13.85-8.8-19.52-10.16l-1.58,1.75q.57,4.34,16.81,17.69c-5.56,7.75-11.9,2.14-13.12.93.58-.45,1.35-1.03,1.92-1.47h.02l-.33-.18c-1.41-.2-3.29-.37-4.71-.39h-.77s-.08,0-1.67.02c-1.71-.06-3.97-.26-5.65-.53l.28.24c-2.95.79-5.99-.03-9.04-.84-4.75-1.26-9.5-2.52-13.89,2.23-5.74,6.24-6.22,36.39,20.67,36.93q-7.81-7.07-8.73-9.5c.1.07,10.43,6.5,12.3,11.85,1.17-.69,2.84-1.44,4.13-1.86-1.14-1.02-2.4-2.74-2.88-4.17,6.07.02,14.78,1.74,21.93,9.77-.71-.11-1.66-.25-2.36-.34,41.09,24.42,51.48,70.69,45.08,84.5-.83.29-1.92.67-2.75.97q-3.08-1.51-6.38-5.13l-1.58,1.75c-.37-.6-.87-1.41-1.24-2,.73,1.67,1.24,4.16,1.11,5.99-.75-.12-1.75-.29-2.52-.4,10.5,8.98.78,22.73,7.67,32.57,6.08,8.66,18.06,10.68,23.03,20.57q1.97,3.91,4.93,17.57c-1.38.19-3.19.68-4.48,1.2,0,.67-.02,1.59-.04,2.27-13.58,5.2-19.02-20.57-18.58-23.03l1.88,1.5c-.63-3.97-1.06-5.13-7.25-8.31l.28-.2-.61-.06.28.21c-4.49-1.55-9.31-1.9-13.68-3.83-.37-1.45-.23-3.66.49-4.97-5.5-2.61-7.84-9.99-15.08-9.95-6.68.03-3.3,10.22-9.98,10.08-.74-.02-1.66-.49-2.37-.7-.71-5.59-1.39-5.79-4.23-6.68.47-.8,1.41-1.78,1.54-2.7.28-1.99-3.05-10.81-9.22-8.3-.22.08-17.8,12.18-9.36,21.56,10.39,11.53,25.82,3.71,37.62,9.81-1.17,6.16-8.06,9.89-7.21,16.91.34,2.71.59,4.85,11.33,16.69,9.28,9.88,16.62,16.71,23.79,22.08l-1.81,1.26c-3.69-1.67-5.99-5.52-10.13-6.47.39.17,9.64,4.2,10.83,16.19l-1.45,1.62q10.24,2.19,12.2,9.71c-.2.65-.95,1.28-1.36,1.81,2.61,5.58,2.53,6.15,2.05,9.86-.71.11-1.65.23-2.36.33-1.12,3.42-2.6,19.56.36,26.26h.02s0,0,.74-.75c-1.43,9.02-1.65,10.4-8.48,17.13-7.48,7.34-18.05,9.87-25.89,16.64-.77-2.58-1.06-3.55-4.27-5.66,2.51,5.13,2.96,6.04-3.12,13.86-.15-.15-14.31-11.25-17.37,13.98,5.15,4.26,7.32,8.23,4.92,18.04-2.33,7.36-9.56,8.97-13.65,9.27.84-1.49,1.89-3.5,2.66-5.03q.9-19.92,4.09-21.92c0-2.86,0-9.56-4.3-11.52-2.35-1.07-28.54,1.24-26.77,16.03,3.31,27.59,33.03,40.89,36.87,68.18,1.37,9.72-2.58,43.14-17.1,32.41-.45,7.21-7.14,26.15-16.85,21.03.97-1.55,2.27-3.61,3.23-5.17-5.33-21.41-29.25-28.36-37.18-47.76-17,11.39-11.61,38.94-10.93,42.06,2.74,12.7,14.1,19.29,20.75,29.21,11.41,17.02,7.85,38.25,15.85,56.24.37.84,1.62,1.41,2.32,2.02-16.88,3.1-23.04-10.71-29.74-40.86-5.64-25.38-8.43-33.6-17.71-26.23-2.26-8.53-3.18-12.05-1.22-27.22,5.19-40-12.64-69.6-18.22-77.7.25,9.13-1.71,9.99-4.65,11.3-.37-.58-.86-1.36-1.23-1.94q-10.45,6.75-13.4,2.88c-4.16-5.45-5.29-13.77-5.84-17.77-2.35-17.12-16.42-27.2-24.56-40.83-.96-1.6-2.13-3.81-3.1-5.4-.95-1.56-2.46-3.5-3.52-4.99-1.46.15-3.41.3-4.86.38q-.92,7.1-3.74,10.33c-.85-1.17-1.79-2.84-2.44-4.13-.7,1.11-1.92,2.46-3.02,3.2-1.34-.41-3.23-.66-4.63-.55-.47.59-1.1,1.39-1.56,1.99l-1.55-1.57-1.84,1.19c-.93-.97-1.65-2.75-1.8-4.08-10.97,25.32-40.11,35.25-51.22,60.44-10.73,24.3-3.56,52.3-15.66,76.33-1.8,3.56-4.13,8.87-7.55,10.93-13.92,8.37-77.19-105.78-57.42-143.71-.63-.45-1.46-1.04-2.1-1.49-.14-1.34-.52-3.1-.99-4.35-.66-.19-1.53-.42-2.19-.6.38.82,1.06,1.85,1.28,2.73,1.77,7-7.54,14.19-13.03,13.36-10.12-1.52-8.28-13.5-15.43-17.62,7.05-.8,7.93-2.93,8.78-5-6.12.32-11.28-.72-19.59-6.96-12.64-10.68-14.37-17.24-14.94-19.4-10.97-5.86-22.67-4.27-34.37-2.66-12.65,1.73-25.32,3.46-37.06-4.28-2.22-1.45-5.12-3.52-7.4-4.88-5.55-3.29-11.58-2.98-17.62-2.67-5.52.28-11.05.56-16.2-1.92-13.59-6.54-12.27-26.17-27.49-31.27-.89-.3-2.18-.21-3.12-.31-.02.04-3.3,3.91-8.67,7.5h.05c5.34,1.31,6.12,2.53,8.39,13.05l16.22,34.76c8.86,9.88,41.39,9.01,42.91-17.56,6.17,6.57,1.15,16.16,6.21,23.04,5.08,6.89,15.56,5.22,20.21,12.79,1.44,2.36,1.68,6.44,1.15,9.14-1.78,8.84-14.2,32.74-48.59,59.93-.67.53-67.47,53.08-82.27,38.86l-55.33-145.16c-.62-1.65-1.48-3.86-2.05-5.54-3.58-10.62-2.74-16.84-1.75-24.06-6.83,9.13-6.71,12.28-6.46,18.56-6.68-9.16-8.84-14.38-9.64-23.23-6.85,11.86-7.51,20.73,6.17,45q10.31,18.28,25.81,73.93c6.6,23.68,13.6,36.35,24.98,45.16,5.36,4.16,15.34,11.88,17.52,17.09,2.84,6.77-.2,9.19-5.7,13.58q28.21,10.62,35.24,8.52,36.73-10.99,37.08-9.04c.29,1.61,6.44,40.06-51.88,113.26-15.7,19.7-23.96,37.02-27.66,51.82h0Zm-43.33-693.42c19.03-10.99,38.74-20.92,59.02-29.79,1.39-.35,2.87-.66,4.17-.83.58-.03,1.36.18,1.91.36-2.35,8.59-12.52,3.47-16.41,9.37q12.82-4.61,16.71-3.57c-.7.31-1.62.72-2.32,1.01-10.31,4.34-21.29,6.95-31.25,12.2q2.49-.75,3.14-.74c-.8.81-1.94,1.01-2.89,1.54l.76.05c-2.6,2.35-6.32,1.71-9.15,3.43l-.09.91.78-.17c-4.26,2.12-7.24,6.24-11.89,7.76-3.66.72-3.88.76-8.45,3.64q1.79-.92,2.91-.99c-1.99.67-3.3,3.11-5.88,2.31l-.22-.77c-.97,2.2-2.83,1.77-3.61,1.59q-7.11,6.41-7.23,6.68l1.68-.88c-1.57,1.09-3.26,1.98-4.9,2.96l1.66-.83c-.43.51-5.82,4.05-7.98,4.35,1.11-1.02,2.3-1.92,3.34-3.01-2.74,1.46-5.39,3.09-8.09,4.65,1.39-.38,2.71-1.03,4.18-1.12-3.42,6.57-10.94,6.18-16.24,9.56h0c-5.46,3.09-5.89,3.15-7.7,3.41l.55-.57c-.15.11-16.48,11.29-20.07,13.52,1.64-1.34,3.39-2.53,4.92-4-3.36,2.12-14.53,11.52-20.44,16.6,13.1-11.47,26.68-22.39,40.75-32.71,12.43-9.11,25.22-17.76,38.35-25.92h0Zm389.28,564.03l.18.31c-.37-.98-.76-1.97-1.15-2.93l.11,1.02.86,1.61h0Zm368.48,75.07c-.46.66-.92,1.32-1.41,1.96.4-2.93.06-5.9.5-8.83q.36-2.39,1.37-3.4l-.63.36c-1.95,1.56-4.07,4.4-5.05,13.7l-.28-.56c-.39,1.23.15,11.21.55,13.44.83,4.6,1.92,4.79,2.68,4.54-2.74-11.55,4.8-11.31,4.87-11.31-.99-4.26-.92-6.33,1.55-13.88-1.49-.44-4.37,2.96-4.17,3.97h0Zm-55.77-186.44v-.07h0s0,.07,0,.07h0Zm28.19,70.91l.17.06.05-.42-.22.37h0Zm-.45.18c1.64-3.52,2.46-5.62,2.48-7.24l-.04-.33c2.13,1.89,4.14,5.56,3.87,8.93-.07.91-.29,1.53-.44,1.93-1.73-3.89-3.66-4.4-6.45-1.7v-.06l-.06.18.12-.89c.04-1.11.14-1.22.23-1.31l.29.5h0Zm-3.68,29.25c1.36.1,4.21-4.59,5.43-7.11,0,0,.7-3.95.84-5.86.5-6.21-2.34-5.64-2.37-5.64-2.93,2.27-6.32,18.45-3.9,18.61h0Zm22.65,25.49c.32,6.06.52,6.24,1.63,7.2.46-1.64.99-3.87,1.23-5.56.03-.22,3.02-22.76-4.86-32.28l.1-.2q.84-.45.5-7.2c-.52,1.35-1.1,2.68-1.56,4.06l.37,1.85q-2.65-1.76-3.31-14.15c5.48,2.29,3.82-6.12,2.22-9.86-2.1-4.96-2.73-4.88-7.63-4.26q-3.69-12.73-5.29-12.95-.86.67-1.26,2.32c-.93-5.91-7.64-5.9-9.02-4.71-.57.49-.78,1.59-.88,2.32-.41-2.16-.55-3.65-.63-6.69l.09.07c.18-1.1.21-1.62.17-2.78l-.15-1.06c-.47-10.42,2.83-21.01-1.32-31.29-3.08-7.63-13.57-2.6-16.87-9.88l-.2-.36.33.84c1.23,9.02-2.59,18.36,1.71,27.19-.68-.17-1.62.28-2.23.58-1.38,5.26,1.26,15.3,6.2,19.13,1.78-1,2.03-2.19.86-4.26q2.52,1.64,1.37,10.41l-1.72.24c-1.34,3.44.51,5.54,7.42,13.35,4.07-4.96-.76-10.42-4-13.24,1.45-.44,3.16-.85,6.81-.29-.75,2.14.33,2.98,1.37,3.47.75-.32,1.53-.67.61-2.98,4.3,1.45,5.88,5.95,9.32,8.37-.66-3.34-2.32-4.54-2.8-4.83.09-1.33.38-5.37,4.54-.98,2.47,2.62,4.61,6.67,5.3,8.01l-.61.06q-.57,3.54,5.11,11.64c-1.2,1.02-2.01,1.27-2.98-.05l.71-.19q.1-1.34-.66-2.68c-.56.55-.83.8-.33,2.43l-.37-.8c-1.1,2.92-1.06,5.42.17,9.59l-.38-.12q.02.14,1.99,3.7l5.73,10.19q-1.24,4.12-10.29,14.16l.38-1.09c-1.28-2.21-8.74-1.8-10.18,3.23-.87,3.06-.61,6.38-2.03,9.31,2.93-3.71,3.61-5.44,3.96-6.37,1.34,1.8,3.72,1.22,5.85.63,2.36-.63,4.42-1.27,4.44,1.32.02,3.63-2.38,7-1.21,10.77,1.14,3.66,5.11,4.79,6.96,7.81-.04-5.13,4.18-8.52,5.32-13.16h0Zm-25.36-.97l.03-.04-1,1.11.97-1.07h0Zm-21.29-124.62l-.03-.11-.04-.11.02.11.06.11h0Zm34.67,236.72c1.94,1.12,5.21-.1,6.02-2.27l.19-1.17h-.04c-.28-2.22-2.8-4-5.41-3.82-2.1.49-2.26,2.07-2.32,2.59-.11.97-.37,3.54,1.55,4.66h0Zm36.04-10.36l.26-.18h0l-.25.18h0Zm-393.06-128.43c-1.17-1.45-1.83-.67-1.84-.66,0,0-.3.8.73.84.11,0,.43-.02,1.04-.16l.07-.03h0Zm8.71,11.6c.58,11.34.17,19.61-1.21,24.61-3.32,12-10.85,1-10.92.87-3.24-5.65-1.79-12.34-.1-20.08,1.77-8.16,2.65-13.43-.12-17.84-.45-.06-1.49-.33-1.72-1.76l.67.42-.33-.42c.56-.43.95-.58,1.74-.65.82-.02,5.13.17,10.3,6.55,1.34,1.66,3.31,4.81,1.45,7.27-.09.12-.15.21.25,1.02h0Zm195.03,74.89l-.06.02h.02s.03-.02.03-.02h0Zm-193.67-77.17c-.32.07-.71.4-1.47,1.26.75,1.67.97,1.83,1.02,1.67l-.08-.77.28-.12.17-.18.47-1.15-.4-.7h0Zm-350.24-330c10.01.89,15.43-5.5,16.86-7.47,5.26-7.32-4.87-19.83-17.72-27.7-4.71-2.89-9.43-1.57-14.15-.24-4.45,1.26-8.9,2.5-13.35.21q-.5-1.97,7.7-9.11c-6.77-3.68-11.31-5.69-17.54-2.62l-.83-.96.46.81.24.19c-5.86,3.13-9.71,9.88-14.16,17.68-5.17,9.05-7.11,10.65-11.85,14.53,1.86,1.34,2.55,1.84,4.04,4.82,1.26,2.51,3.17,6.29,5.22,6.76,5.73,1.3,10.57-1.15,15.41-3.59,4.83-2.44,9.67-4.89,15.37-3.61,8.72,1.98,15.09,9.49,24.29,10.31h0Zm-13.61-46.18c-2.27,3.94,2.29,4.73,14.49,6.81,1.05-2.78,2.83-7.43,6.11-6.19-.06-1.51-.06-1.75-1.71-2.58-1.53-.76-1.61-1.02-1.54-2.64,2.84.41,5.66-.41,8.63-2.51l1.06-.8c-6.01-3.14-17.09.75-24.93,6.2l.59-.63s-1.67,1.19-2.42,2.01l.83-.71-.84.76-.1.05-.24.19.06.05h0Zm70.24,19.36q1.66.75,3.76-.08c-5.62,8.63-4.44,12.63,6.33,21.35,6.76,5.48,8.34,7.43,8.94,10.98-7.57-1.15-11.18,12.52-10.62,17.15.9,7.42,7.51,10.98,12.82,13.86,1.56.84,1.61,1.08,1.76,1.67h.2l-.08.21c4.38,2.64,8.33,1.12,12.29-.4,2.81-1.07,5.63-2.14,8.59-1.72l.15.02c-.34-26.6-.55-42.66-11.95-53.83-8-7.85-8.28-9.66-8.73-12.67.95-1.23,3.12-1.99,4.65-2.28q-1.9-4.21,10.9-6.82c-1.99-1.56-2.33-1.99-1.36-6.38.69-3.08,1.72-7.74-7.87-8.19-10.49-.5-14.22,11.14-23.37,13.03-1.27-.07-2.05-.48-2.89-1.53-.09,5.45-4.7,9.88-3.51,15.62h0Zm487.2,434.01h.03s-.03,0-.03,0h0Zm-72.29-44.05h.03-.07.03Zm184.45-177.26l.08.06c-.67-.84-1.3-1.7-2.01-2.51l.04.1c.29.67.81,1.66,1.89,2.36h0Zm-4.2-5.54l-.36-.29h-.05l.41.29h0Zm-.06.35l-1.03-1v.12s.77.64.77.64l.26.24h0Zm.69-18.59c2.55-4.6,3.4-6.36,2.95-8.24l-.21-.43c.48.84,1.13,2,1.26,4.59.19,3.36-.67,7.53-1.42,11.22-1.43,6.9-2.1,10.66-.94,14.2q-1.95-2.42-3.87-3.85l.29.17q-.61-.53-.75-.74l.71.4c-3.85-4.77-2.42-9.38,1.99-17.31h0Zm-48.09,21l-.46.67.46-.67v-.03.03h0Zm21.14,275.59c.06-.02,5.87-1.84,1.11,3.96,1.4-1.58,3.09-3.89,4.06-5.78,2.74-5.41,2.04-11.75,4.64-17.2,3.17-6.67,9.21-11.4,12.18-18.21,2.08-4.74,1.91-6.81,1.63-10.25,3.81,4.78,5.44,2.01,5.96.61,1.3-3.5.9-10.5-8.4-23.98q1.27.84,2.09,1.17.08-.29-2.92-5.2c1.28.11,5.31.13,4.2-4.21l.35.51.54-.23c-.06-.56-.16-1.72-.88-4.09,3.18,2.88,5.21-.81,5-3.16-.06-.71-.44-1.59-.73-2.23h0s.12-.13.12-.13c1.02-1.14,9.84-11.2,4.91-11.31-1.75-.04-4.93,1.42-6.46,2.12q1.24-.83,1.66-1.56-1-.46-3.91-.16c3.09-6.93-2.16-10.27-3.47-10.16-.98.32-1.14.52-1.81,1.36l-.02-.61c-.09,0-9.34.5-12.99,23.62-.2-2.11-.46-2.52-1.75-3.88-1.73,3.39-2.51,5.53-3.36,9.22-3.07-.71-1.95-5.04-4.99-5.81-3.52,9.75-19.41,23.07-21.6,19.66l-.21-.57c-2.14,5.08-2.92,8.43-3.16,13.78-3.12-2.46-10.16-1.27-9.73-6.86-5.49,5.42-7.76,7.66-6.92,18.83.02.36,4.97,36.61,11.14,37,1.9.12,3.63-2.91,4.47-4.36,1.07,6.13,14.35,6.78,18.23,4.74-2.06,8.54,7.02,5.21,11.04,3.39h0Zm55.27-149.01c1.37,3.01,6.94-1.99,6.99-2.04.98-.9,1.53-1.83,1.62-2.74.14-1.33-.4-1.94-1.98-3.74-3.48-3.94-4.3-5.15-4.93-6.21-.23.11-.36-.02-.71-.67v.19c-.02.63-.1,1.17-.43,3.41-.56,3.65-1.49,9.75-.55,11.81h0Zm3.66,119.17h0l-.44-.17.43.17h0Zm-2.69-134.58h0l-.08-.11.07.11h0Zm31.42,156.52c-3.23.19-7.9,2-4.06,5.36l1.58,1.11-.31.32.08.05.32-.31c5.6,3.07,11.31,3.34,13.01.61,1.19-1.93-.47-3.67-.75-3.85.06.69.7,1.45,1.02,2.07-3.08-5.22-9.6-5.38-10.88-5.36h0Zm-47.02-142.15c.3-4.42-1.25-7.11-2.18-8.71l-.37.73c-1.07,2.43-2.79,6.65-2.18,7.56.35-.15.56-.24,1.72-1.8-5.07,8.56-10.61,17.32-11.13,18.06h0s-.7,1.04-.7,1.04c-1.75,2.86-2.66,4.73-3.87,8.02,7.37-3.87,18-14.69,18.71-24.9h0ZM228.59,584.08c.89-1.24,3.59-5.01,6.38-10.81.97-2.02,1.66-3.7,1.92-4.33l-.59.28c-3.67,2.55-7.3,9.28-7.16,9.74h0c-1.23,2.67-1.36,3.87-.55,5.12h0Zm-72.58,22.26l.16-.24h0l-.17.24h0Zm66.95-18.9l-.02.23c-.17.91-.49,1.9-1.56,5.06-1.97,5.83-5.29,15.59-2.47,13.78,2.53-1.62,7.21-9.62,9.48-14.54,2.8-6.08,1.14-6.01.6-5.99-.33.05-1.38.3-3.98,1.77-1.98,1.13-1.98,1.02-2.06-.32h0Zm86.81,35.48l.05-.05-.06.05h0Zm145.33,96.14c1.79.29,2.23.11,2.34-.02.2-.26-.54-.62-1.23-.6-.67.05-.93.34-1.1.62h0Zm-230.84-220.75c1.5-.62,9.66-4.51,22.34-20,1.3-1.59,5.26-6.44,2.55-6.36l-.57.08c-4.98,1.62-8.34,5.9-13.07,7.94-.85,2.23-1.64,3.22-3.5,4.39.92,1.06-.79,3.08-5.24,7.46-2.35,2.32-9.52,9.4-2.51,6.5h0Zm770-90.81l.12.06-.11-.06h0Zm.24.14l-.12-.07.11.07h0Zm-489.82-70.6c1.23-.18,3.56-.51,6.16-.3q-1.62.28-1.78.4l.1.2c-1.15.27-1.8.35-2.68.38.56,1.26,2.25,1.36,6.43.37l-.97.37,1.19.08c-.36.44-1.06,1.26.72,1.07,1-.1,2.62-.57,3.14-.73l.32-.09c-1.23-.54-2.37-.63-3.96-.3.61-.16.98-.31,1.58-.67l-.53-.1c1.31-.35,2.61-.71,3.92-1.02-.07-.85-.19-2.3-4.68-2.21-3.2.18-6.67.98-10.29,2.37.67.14,1.02.2,1.34.16l-.02.02h0Zm566.38,182.74l-.55-.68h-.08c-.24.03-.02.62.75,1.98l-.11-1.3h0Zm-546.2-181.89l3.13.75c.89.1,1.76-.08,2.09-.15l-.3-.72.78-.2q2.71,1.1,8.19-1.25.63,1.88,10.32-1.43l-.4.69c-.67.62-.69.68-.78.91.2.06.8-.04,1.76-.3l.31-.61.07-.16c.22-.76.2-.85.11-1.11-1.16-.53-1.47-.57-4.35-.29l1.32-1.16c-1.91-.03-3.63.95-5.51,1.04,0,.1.15.88,1.95.77-1.1.4-2.27.6-3.39.94h-.05c-.65.05-1.64.12-5.83,1.11l.16.49c-.72-.12-1.28-.16-2.09-.14,1.28-.41,2.01-.67,3.07-1.12-1.54-.41-2.66-.58-4.56-.66.95-.11,2.47-.5,3.37-.84,1.23.32,4.1,1.05,4.42-.16l-.32-.29c-.81-.24-1.68-.06-2.47-.42-2.08-.93-2.33-.89-2.59-.84q-.11.21.22,1.06c-2.73.48-5.33,1.71-8.18,1.53l-.56.28.08.61c-.18.11-.31.19-1.14-.16l.12.75-.21.03c-.87-.21-1.87-.4-3.72-.24-.05.48-.05.84.06,1.42q4.74-.18,4.92-.11h0Zm551.03,191.36l.27-.34v-.05l-1.07-.85.8,1.23h0Zm2.79,12.8l-.11-.25-.58-.08c-.53.18-.7.84-.54,1.94l-.16-.41c-.03.16-.05.29,1.58,3.61.7-.46,1.47-1.48-.18-4.82h0Zm-4.34-15.79l.02-.18-.97-.59v.1c.1.89.81.84.96.66h0Zm-5.07-9.73l-.19-.6c-.48-.84-1.88-2.57-2.64-2.85v.04c.11.46.98,1.74,1.57,2.44l1.25.97h0Zm-256.36-158.36l.13-.37c-4.45-2.78-8.15-3.87-12.79-3.75-1.98.16-3.3.38-5.42,1.22.54-.14,1.93.33,4.54,1.24,4.87,1.68,12.25,4.24,13.53,1.67h0Zm-167.99-11.51h.14c6.25-.07,10.27-1.49,12.1-2.33l.76-.37c-2.19-1.99-7.66-3.89-11.02-3.82-4.29.25-4.9,4.89-3.51,5.99.67.53,1.3.54,1.54.54h0Zm123.4,9.32l-.62.1c1.48.21,2.99.07,4.48.26,5.14.65,10.09,2.33,15.26,2.84,3.36.33,5.72-.06,6.23-.58-.53-1.2-9.18-2.55-9.27-2.56h-.06l.02.02h-.02s0,0,0,0c-2.17-.16-4.25-.83-6.4-1.1-1.99.11-3.77-.63-5.54-1.38-1.72-.71-3.44-1.42-5.34-1.37-1.13.1-1.24.42-1.36.77.64,1.2,2.09,1.71,2.64,2.99h0Zm-152.49-16.32l-.06-.12c2.25-.66,4.21-.88,8.02-1.16-2.79.32-3.39,1.03-3.94,2.01,4.17,1.39,7.82,4.06,12.21,4.86,3.79.69,5.95-.75,6.89-1.36.24-.17.93-.67,1.7-1.6l.05-.06q-.19-.16-1.36-.57c-1.49-.55-1.31-.97-.06-1.9-4.6.1-6.46-.87-8.82-2.1-2.79-1.45-4.96-2.13-9.9-2.1-1.79.04-2.86.11-4.57.26.24,1.21.32,2.46-2.05,2.05,1.74.39,2.77.54,4.43.68-1.9-.02-3.04-.06-4.69-.19.34.38,1.23,1.41,2.13,1.3h0Zm-348.04,79.68l-.08.06-.41.37c1.15-1.02,2.33-2.02,3.49-3.03-1.29,1.1-2.34,2.02-3,2.59h0Zm778.67,225.38l-.02-.02-.24-.3.26.33h0Zm-735.46-245.15c-.63.19-1.28.15-1.93.1-.74-.05-1.49-.1-2.2.2-1.81.75-2.93,1.6-5.2,3.6,1.21-1.23,1.65-1.75,1.69-2.22-.72-.4-3.77,1.32-7.94,4.49,6.76-6,7.51-7.03,7.99-7.72l-.22.04c-1.02.71-2.47,1.92-4.29,3.54l.47-.82c-.27-.06-.53-.12-3.82,2.9l.15-.31c-.24-.03-.39-.06-2.57,1.53l.33.02-.02.93.17.1-.98.68-.18.54.15.12c-.06.02-4.97,1.92-4.9,3.28l.71-.07c-7.53,5.5-4.25,6.34-4.22,6.34,1.37.32,6.73-1.29,11.99-4.56,1.06-.64,2.44-1.56,3.43-2.29,1.78-1.32,3.19-3.11,5.22-4.11l-.28-.15c.19-.53.57-1.52,6.46-6.16h0Zm768.13,137.43c.02-.38-.39-1.49-1.19-3.17l-.11-.22-.04.22c-.07.43-.19,1.23.09,2.1l-.46-.24c.45.54,1.67,1.97,1.71,1.31h0Zm-833.54-52.06q-4.48,2.99-12.82,12.37s-.77,2.6,1.45,2.62c1.49.02,3.43-1.19,4.26-1.69-.89.71-1.36,1.06-2.01,1.52,9.42-4.74,11.32-2.57,11.93-.14,1.19-4.05,5.39-5.23,7.8-8.12,3.11-3.74.28-3.47-1.23-3.33-.84.08-.87.08-1.25,0,1.78-2.09,4.47-5.24,3.88-6.59,2.28.84,5.93-15.42,5.83-15.63l-.5-.58c5.29-2.23,13.97-9.79,14.28-12.43-.7-.79-1.8-.3-6.47,1.76q7.67-5.73,9.63-7.73c-.59.57-1.4,1.32-2.01,1.89-6.64,4.98-11.19,6.25-12.43,6.53.32-.6.74-1.13.97-1.76l-.28-.05c2.48-1.82,4.21-3.47,5.6-5.32-1.08.02-1.76.62-4.03,2.61q-3.35,2.83-3.39,3.01c-2.14,1.75-3.49,3.57-3.75,3.91,1.29-1.22,2.48-2.56,3.72-3.82l-.05.29.23.2.81-.32c-2.37,2.25-3.62,4.33-3.63,4.34.65.23.9-.23,1.39-1.15l.08.29c.42.04.68.02,2.19-1.02l-9.47,8.11s5.19-2.89,7-4.38q-1.29,1.35-5.15,4.54l.96-.88q-3.54,2.37-5.81,4.87c1.02-.7,1.66-1.18,2.71-2.06-.58.59-2.11,2.15-2.72,3.65.33,0,1.03,0,5.49-4.27-3.56,3.92-4.2,4.73-4.32,6.21.51.52.52.54,2.74.61-1.9,1.39-4.47,4.19-5.08,5.86l.22.23.56-.18c-2.66,2.77-3.7,3.62-7.34,6.03h0Zm800.37,159.16l.24.3-.24-.32v.02h0ZM504.27,374.94c.16.4.29.74,1.86,1.21l.89-1-.57-.72.61-.83c3.91,6.03,8.48,7.15,13.95,3.44-1.4-2.83-3.74-5.08-4.98-8.01,3.94-1.04,7.56-4.25,8.61-7.61,2.11.98,4.63-.5,10.69-4.08,6.51-3.82,14.15-2.89,21.06-5.04.85-.26,1.94-.75,2.76-1.07-4.73-.77-9.48-1.12-14.09-1.04-2.72.16-3.96.28-6.09.91-1.4.42-2.36,1.63-3.73,2.11-4.86,1.66-9.99,2.36-14.79,4.22.83,1.15.45,1.58-2.93,3.22-.15.07-15.23,9.65-14.98,11.72,1.19.7,2.7.55,3.83,1.42-1.5.48-1.77.57-2.1,1.15h0Zm544.13,167.55c-1.72-2.61-3.33-4.35-11.3-11.54-7.17-6.46-8.54-7.9-9.16-9.71l.24-.5c1.05-.23,1.65-.35,5.53.91-1.03-2.88-1.98-4.91-6.61-8.66-6.92-5.62-15.69-8.08-22.83-13.33-7.34-5.4-12.88-12.8-20.16-18.29-2.36-1.78-5.81-3.88-8.85-3.81-.79.09-.98.13-1.71.39,2.22,2.62,5.75,3.63,7.85,6.4l.02.03c11.09,7.09,35.49,32.75,47.21,45.09,10.18,10.7,12.7,13.21,15,14.92-1.97-2.57-2.97-4.22-4.26-7.05q.83.22,3.5,2.07c2.63,1.82,4.91,3.39,5.52,3.08h0Zm-618.38-192.07c1.73-.27,3.63-1.2,8.15-3.49,5.53-2.8,6.29-3.1,7.3-2.85.23.48-.02,1.63-4.16,3.9.87.47,2.11.41,5.52-.3,2.61-.55,2.91-.59,4.26-.72.49-1.69.6-2.09-.09-3.04-.97-1.33-2.65-1.54-3.92-2.41,2.43-.09,6.94-.29,14.92-1.64,6.34-1.08,4.34-4.51,4.29-4.54-.75-.53-2.51-.49-3.45-.46-6.45.43-12.35,2.31-14.07,3.22l-.06.21c-.9.12-1.82.06-2.7.32l-.89.74c.47.19.76.29,1.84.35l-1.22.52c-1.67-.82-3.26-.24-5.45,2-.12-.98-1.58-1.74-.73-2.82-.75.35-3.05,1.4-4.92.65l-.84.09c-.98.59-1.24,1.88-2.35,2.36l.06-.87c-.81-.02-1.97,1.83-1.66,2.3.5.74.88,0,1.42-1.04,1.13.33,2.29.27,3.46.21,1.36-.07,2.72-.15,4.03.42q-11.23,4.32-11.71,5.12c.36,1.06,2.95,1.78,2.97,1.78h0Zm617.9,198.62c6.15,3.34,11.96,7.27,18.38,10.1,6.92,3.05,5.9.15,5.34-1.42.48.65.96,1.3,1.43,1.94.17-1.13.32-2.03,2.2-2.57l-.13-.35q-.68-3.99,2.13-7.28c-.45,2.57.42,5.17-.2,7.73l-1.16.33-.11-.05c.89,3.72.79,4.09.46,5.33l-1.06-.2-.11-.11c1.89,2.47,5.02,3.11,7.3,5.01-.15,1.46-1.3,8.91-10.43,12.51,10.74,9.02,18.62,24.33,29.54,45.52q-.78-1.62-.91-2.27c.1.11,10.07,14.23,10.01,21.86l-.4.37c-3.27-1.89-2.84-6.09-5.26-8.5l-.41.58c.31,1.24,1.1,2.33,1.25,3.64q-.94-.87-1.66-.84c.1,2.09,1.67,3.98.88,6.2-1.08-.26-3.67-2.38-2.35-4.11l-1.07-.66c-.56.75-.97,1.29.62,5.13-1.14-.32-1.59-.36-3.19-.3h-.55c-1.84-.03-2.11-.12-3.29-.59.21,1.06.83,4.27.07,8.48v.05c-1.07,4.8-3.65,1.15-4.49-.05-.86-1.27-1.33-2.06-2.48-3.98.24,1.32.49,2.66.75,3.98l.17.98c.41,2.27.8,4.57,1.19,6.86-2.16-1.59-3.15-1.86-3.74-1.02-.39.54-.37,2.17-.37,2.96.02,2.66-.05,3.18-.36,4.32-3.5-4.07-6.59-6.2-10.66-7.33,3.38-.2,4.79-2.23,6.68-6.76,1.66-4.04,2.35-5.51,4.41-6.98-4.68-5.75-19.17-.15-21.25,5.33,1.36.45,1.71.64,3.14,1.66,7.03,5.81,11.26,17.27,12.1,21.6,1.17,5.99-1.45,5.08-2.17,4.52-5.44-4.17-8-10.61-12.35-15.66l-.44-.3c-.14.25-.2.34-.29,1.8-.63-1.74-1.01-2.36-3.12-4.52-2.49-2.52-2.86-3.99-1.93-7.46,1.44-4.57,9.35-26.95,23.93-18.54-8.44-16.35-4.75-16.43-2.57-16.46,4.38-.08,4.44-20.26-11.76-35.58,2.03,1.41,4.42,2.28,6.24,4.03q-1.01-1.55-4.44-5.84l-.04.56c-.5.49-.85.84-3.1-.02-.19-.07-17.39-8.76-7.52-14.08-1.14-.46-2.61-1.43-3.26-2.48-3-4.78-4.73-10.21-7.7-15.01-.57-.63-1.32-1.45-1.87-2.07h0Z"/>
  </g>
  <g>
    <path class="cls-9" d="m301.29,1219.14v-364.9s-157.08,78.13-244.4,160.21C22.56,1046.7-.98,1079.58.03,1108.55c.75,21.49,14.38,38.83,35.47,52.82,79.67,52.84,265.79,57.77,265.79,57.77h0Z"/>
    <path class="cls-12" d="m302.25,1041.84c1.72.53,2.68,2.35,2.15,4.06-.53,1.72-2.35,2.68-4.06,2.15-.05-.01-16.32-5.1-40.87-6.22-6.52-.3-13.63-.31-21.17.13-6.56.38-13.46,1.12-20.58,2.31l-46.62,7.82c-1.77.3-3.45-.9-3.74-2.67-.3-1.77.9-3.45,2.67-3.74l46.62-7.83c7.35-1.23,14.48-1.99,21.3-2.39,7.74-.45,15.07-.43,21.81-.13,25.41,1.16,42.45,6.48,42.5,6.5h0Z"/>
    <path class="cls-12" d="m201.12,1080.92c-1.12,1.4-3.17,1.62-4.57.5-1.4-1.13-1.62-3.17-.5-4.57,9.01-11.17,18.67-19.74,29.54-26.4,10.84-6.64,22.86-11.36,36.61-14.84,1.74-.44,3.51.62,3.95,2.37.44,1.74-.62,3.51-2.37,3.95-13.14,3.32-24.56,7.79-34.81,14.07-10.22,6.26-19.33,14.35-27.86,24.92h0Z"/>
  </g>
  <g>
    <path class="cls-9" d="m1012.1,1228.02v-364.9s157.08,78.13,244.4,160.21c34.32,32.26,57.87,65.14,56.85,94.11-.75,21.49-14.38,38.83-35.47,52.82-79.67,52.84-265.79,57.77-265.79,57.77h0Z"/>
    <path class="cls-12" d="m1011.14,1050.72c-1.72.53-2.68,2.35-2.15,4.06.53,1.72,2.35,2.68,4.06,2.15.05-.01,16.32-5.1,40.87-6.22,6.52-.3,13.63-.31,21.17.13,6.56.38,13.46,1.12,20.58,2.31l46.62,7.82c1.77.3,3.45-.9,3.74-2.67.3-1.77-.9-3.45-2.67-3.74l-46.62-7.83c-7.35-1.23-14.48-1.99-21.3-2.39-7.74-.45-15.07-.43-21.81-.13-25.41,1.16-42.45,6.48-42.5,6.5h0Z"/>
    <path class="cls-12" d="m1112.27,1089.8c1.13,1.4,3.17,1.62,4.57.5,1.4-1.13,1.62-3.17.5-4.57-9.01-11.17-18.67-19.74-29.54-26.4-10.84-6.64-22.86-11.36-36.61-14.84-1.74-.44-3.51.62-3.95,2.37-.44,1.74.62,3.51,2.37,3.95,13.13,3.32,24.56,7.79,34.81,14.07,10.22,6.26,19.33,14.35,27.86,24.92h0Z"/>
  </g>
  <g>
    <path class="cls-10" d="m747.41,794.75c-2.16,22.51-4.17,78.33,10,98.33-54.17,47.5-158.33,38.33-192.5,5.83,7.5-26.67,7.5-81.67,0-99.17s88.33-30.83,88.33-30.83l94.17,25.83Z"/>
    <path class="cls-10" d="m833.24,694.34c0,38.56-34.43,49.58-55.83,49.58s-15.2-34.43-15.2-56.06,2.97-43.11,24.37-43.11,46.66,10,46.66,49.58Z"/>
    <path class="cls-10" d="m464.91,701.45c0,38.56,34.43,49.58,55.83,49.58s15.21-34.43,15.21-56.06-2.97-43.11-24.38-43.11-46.67,10-46.67,49.59Z"/>
    <path class="cls-3" d="m695.84,864.47c-39.26,17.78-99.18,15.55-125.89,0,.51-12.24.8-27.65,0-36.52,31.62,10.13,125.89,36.52,125.89,36.52Z"/>
    <path class="cls-15" d="m502.41,663.08c0,120,60,204.17,168.33,204.17s133.33-141.67,133.33-204.17-100.83-134.16-154.99-134.16c-131.67,0-146.67,134.16-146.67,134.16Z"/>
    <ellipse class="cls-2" cx="710.12" cy="701.94" rx="9.37" ry="15.94"/>
    <ellipse class="cls-2" cx="607.93" cy="701.94" rx="9.37" ry="15.94"/>
    <path class="cls-14" d="m697.37,678.95s.06-.21.17-.62c.14-.39.29-1.07.62-1.7.61-1.36,1.63-3.18,3.24-4.81.79-.87,1.7-1.75,2.78-2.43,1.03-.78,2.22-1.5,3.49-2.09,1.3-.52,2.66-1.09,4.12-1.35,1.45-.33,2.95-.51,4.47-.53,1.52-.01,3.05.09,4.53.41,1.49.21,2.92.74,4.26,1.3,1.36.46,2.54,1.37,3.64,2.09,1.13.65,2.05,1.6,2.84,2.5,1.65,1.66,2.6,3.56,3.13,4.94.55,1.38.72,2.28.71,2.28l.08.4c.05.23-.11.45-.33.49-.09.02-.18,0-.25-.03,0,0-.55-.26-1.51-.7-.95-.48-2.32-1.08-4.02-1.66-.84-.33-1.76-.66-2.76-.88-1-.24-2.03-.58-3.15-.7-2.21-.37-4.6-.58-6.98-.45-4.78-.05-9.55,1.01-12.96,2.19-3.46,1.1-5.6,2.21-5.6,2.21-.2.11-.46.03-.57-.18-.06-.1-.07-.2-.04-.3l.1-.38Z"/>
    <path class="cls-14" d="m583.65,678.93s.18-.89.73-2.19c.54-1.28,1.45-2.97,2.83-4.52.68-.8,1.46-1.64,2.38-2.3.92-.68,1.87-1.5,3-2.01,2.19-1.17,4.8-1.89,7.54-2.13,2.74-.19,5.66.23,8.27,1.23,2.61,1.11,4.9,2.69,6.39,4.54.77.9,1.33,1.88,1.77,2.72.46.81.63,1.77.81,2.44.3,1.42.26,2.28.26,2.28l-.02.42c0,.23-.2.41-.43.4-.08,0-.15-.03-.21-.07,0,0-.45-.29-1.24-.8-.73-.59-1.96-1.11-3.4-1.78-1.47-.58-3.26-1.09-5.24-1.36-1.98-.23-4.12-.27-6.25-.06-4.28.24-8.54,1.27-11.63,2.28-3.12.97-5.13,1.79-5.13,1.79-.2.08-.43-.01-.51-.21-.03-.07-.04-.15-.02-.22l.09-.46Z"/>
    <path class="cls-14" d="m677.31,738.39s.23.71.63,1.94c.36,1.19,1.1,2.9,1.87,4.97,1.59,4.15,3.83,9.71,5.04,15.87.52,3.09.91,6.37,0,9.72-.42,1.66-1.4,3.32-2.73,4.42-1.33,1.12-2.85,1.65-4.15,1.85-2.65.43-4.58-.17-5.94-.39-1.32-.38-2.05-.64-2.05-.64-.41-.15-.63-.6-.48-1.02.11-.31.39-.51.71-.53h.06s.75-.04,2.01-.03c1.23-.06,3.1-.14,4.83-.79,1.77-.69,2.97-1.8,3.31-3.97.38-2.15.07-4.94-.47-7.7-1.1-5.58-2.79-11.33-3.57-15.83-.44-2.24-.57-4.17-.66-5.55-.08-1.41.03-2.12.03-2.12v-.07c.08-.44.49-.74.93-.67.3.05.55.27.63.55Z"/>
    <path class="cls-14" d="m627.28,800.33s1.26.52,3.41,1.54c1.07.59,2.38,1.02,3.78,1.5,1.39.52,2.96,1.06,4.83,1.54,1.8.56,3.79,1,5.91,1.43,2.08.53,4.39.69,6.69,1.14,2.35.26,4.78.49,7.25.67,2.48.16,4.99.24,7.52.2,2.53.12,5.06-.12,7.55-.2,2.46-.28,4.95-.28,7.28-.7,2.35-.32,4.63-.6,6.75-1.06,2.17-.34,4.08-.95,5.97-1.34,1.77-.59,3.48-1.02,4.91-1.54,1.38-.61,2.7-1.02,3.69-1.49,1.92-1,3.12-1.57,3.12-1.57l.23-.11c.79-.37,1.74-.03,2.11.76.27.58.16,1.24-.23,1.7,0,0-.92,1.06-2.7,2.91-1.87,1.69-4.76,3.88-8.57,5.85-1.93.83-4,2.01-6.33,2.69-2.29.82-4.74,1.64-7.32,2.15-2.58.66-5.27,1.01-8.03,1.43-2.76.18-5.57.52-8.39.47-2.82.09-5.63-.18-8.41-.42-2.77-.22-5.47-.81-8.07-1.34-2.58-.68-5.08-1.24-7.35-2.22-1.14-.44-2.25-.87-3.32-1.28-1.03-.53-2.02-1.05-2.98-1.54-1.9-.91-3.6-2.03-5.05-3.12-1.5-1.01-2.68-1.95-3.46-2.81-1.69-1.67-2.62-2.67-2.62-2.67-.6-.66-.56-1.68.1-2.29.47-.44,1.15-.53,1.71-.3Z"/>
    <path class="cls-4" d="m792.45,594.96c4.61-6.07,10.68-18.09-4.46-26.78-21.06-12.08,16.47-23.36,1.08-42.97-15.39-19.6-12.55-62.19-42.92-54.78-30.37,7.41-36.24-13.6-53.99-6.71-6.87,2.66-13.35,1.6-18.34-1.35-13.44-7.94-42.29-35.8-80.29-3.47-9.3,7.91-16.88,11.17-23.64,12.44-40.75,7.64-98.64,26.7-82.16,84.3,9.99,34.91-4.32,27.66-7.83,44.85-5.63,27.57,14.79,24.94,18.73,36.68,1.08,3.22.23,11.98,10.22,16.27l11.73,6.07c9.99,4.3,16.91-6.99,26.9-22.3,9.99-15.31,10.26-3.22,42.11-4.83,22.08-1.12,37.33-24.63,44.61-38.96,4.18-8.22,10.88-14.89,19.2-18.87,10.74-5.14,23.81-9.24,25.06.42,2.16,16.65,22.38,52,32.37,37.77,9.99-14.23,35.58-26.67,40.98-17.81,5.4,8.86,8.91,49.93,28.45,39.51"/>
    <path class="cls-6" d="m517.19,657.82c10.78,5.22,16.31-7.17,27.09-25.76,10.78-18.58,11.07-3.91,45.44-5.87,34.37-1.96,44.54-51.27,44.54-51.27,0,0,47.49-27.63,49.82-7.42,2.33,20.21,20.1,47.93,30.87,30.65,10.78-17.28,37.28-19.89,43.11-9.13,5.82,10.76,12.2,60.9,25.05,42.71s13.32,45.27,13.32,59.58c0,1.58,1.25,2.86,2.83,2.91l.66.02c1.64.05,3-1.27,3-2.91l4.29-47.35c0-10.8,1.04-24.08-2.76-42.08-2.47-11.69-1.01-13.48,4.15-21.12,4.97-7.37,11.53-21.96-4.81-32.51-22.72-14.67,17.77-28.37,1.17-52.17-16.6-23.8-13.55-75.5-46.31-66.51-32.76,8.99-39.1-16.51-58.25-8.15-7.41,3.24-14.4,1.94-19.79-1.64-14.5-9.64-45.63-43.46-86.63-4.21-10.03,9.61-18.21,13.56-25.51,15.1-43.96,9.28-106.42,32.42-88.64,102.35,10.78,42.38-4.66,33.58-8.45,54.45-6.07,33.47,19.93,63.55,24.17,77.8.92,3.08,7.58,19.21,8.46,26.11.2,1.61,1.25,2.95,2.87,2.97h0c1.69.02,3.05-1.39,2.94-3.08-.59-9.61-1.59-37.81,7.38-33.47h0Z"/>
  </g>
  <g>
    <polygon class="cls-6" points="298.07 726.18 1016 726.18 1016 1198.93 298.07 1198.93 298.07 726.18 298.07 726.18"/>
    <polygon class="cls-8" points="298.07 1198.93 1016 1198.93 1016 1253.71 298.07 1253.71 298.07 1198.93 298.07 1198.93"/>
    <path class="cls-5" d="m657.04,978.2c155.78,0,291.02,77.74,358.97,191.77v28.96H298.07v-28.96c67.94-114.03,203.19-191.77,358.97-191.77h0Z"/>
    <path class="cls-1" d="m657.18,975.02c2.89.98,6.03-.57,7.02-3.46.98-2.89-.57-6.03-3.46-7.02-13.99-4.74-24.51-14.87-30.36-26.43-3.45-6.82-5.26-14.1-5.18-21,.08-6.67,1.93-12.99,5.79-18.19,4.67-6.28,12.4-11.03,23.67-12.93,4.33-.73,8.73-.79,12.9-.15,5.33.81,10.21,2.75,13.93,5.88,3.56,2.99,6.11,7.14,7.01,12.51.5,2.95.51,6.3-.07,10.08-.91,6-3.55,11.66-7.51,15.65-3.39,3.42-7.77,5.61-12.84,5.66-4.93.05-8.97-3.67-11.08-8.04-.76-1.57-1.25-3.21-1.43-4.77-.16-1.38-.08-2.64.27-3.65.49-1.39,1.82-2.43,4.2-2.61,3.05-.23,5.34-2.88,5.11-5.93-.23-3.05-2.88-5.34-5.93-5.11-7.49.57-11.9,4.56-13.82,10.01-.93,2.65-1.18,5.59-.84,8.54.32,2.78,1.18,5.63,2.47,8.32,3.75,7.77,11.38,14.37,21.13,14.28,8.25-.08,15.26-3.53,20.59-8.91,5.65-5.7,9.38-13.57,10.63-21.8.75-4.93.71-9.44.02-13.54-1.37-8.18-5.31-14.56-10.82-19.18-5.34-4.49-12.12-7.24-19.39-8.35-5.28-.8-10.86-.73-16.36.2-14.34,2.41-24.42,8.77-30.73,17.26-5.31,7.14-7.85,15.71-7.96,24.64-.1,8.7,2.12,17.74,6.35,26.11,7.06,13.97,19.77,26.21,36.68,31.93h0Z"/>
  </g>
  <g>
    <path class="cls-9" d="m558.2,170.19c-1.17,14.28,3.71,55.43-9.8,59.49-20.26,6.08-33.21-38.57-46.6-59.49h-82.39c-14.51,0-26.34-11.83-26.34-26.34V26.34c0-14.51,11.83-26.34,26.34-26.34h162.09c14.51,0,26.34,11.83,26.34,26.34v117.51c0,14.51-11.83,26.34-26.34,26.34h-23.3Z"/>
    <polygon class="cls-11" points="475.25 65.91 475.25 72.56 441.69 86.24 475.25 99.93 475.25 106.47 432.92 89.12 432.92 83.37 475.25 65.91 475.25 65.91"/>
    <polygon class="cls-11" points="510.51 54.35 516.62 54.35 490.85 115.01 484.74 115.01 510.51 54.35 510.51 54.35"/>
    <polygon class="cls-11" points="526.13 65.91 568.45 83.37 568.45 89.12 526.13 106.47 526.13 99.93 559.68 86.24 526.13 72.56 526.13 65.91 526.13 65.91"/>
  </g>
  <g>
    <path class="cls-9" d="m981.05,425.21c.83,10.16-2.64,39.44,6.97,42.32,14.41,4.32,23.63-27.44,33.15-42.32h58.62c10.32,0,18.74-8.42,18.74-18.74v-83.6c0-10.32-8.42-18.74-18.74-18.74h-115.31c-10.32,0-18.74,8.42-18.74,18.74v83.6c0,10.32,8.42,18.74,18.74,18.74h16.57Z"/>
    <polygon class="cls-11" points="972.14 380.38 972.14 345.76 977.76 345.76 977.76 358.54 994.81 358.54 994.81 345.76 1000.42 345.76 1000.42 380.38 994.81 380.38 994.81 363.58 977.76 363.58 977.76 380.38 972.14 380.38 972.14 380.38"/>
    <polygon class="cls-11" points="1014.98 350.55 1014.98 380.38 1009.36 380.38 1009.36 350.55 1000.16 350.55 1000.16 345.76 1024.13 345.76 1024.13 350.55 1014.98 350.55 1014.98 350.55"/>
    <path class="cls-11" d="m1052.09,363.29c-.06-.27-.17-1.01-.31-2.22-.13-1.01-.24-1.85-.33-2.51-.15.79-.35,1.58-.61,2.36-.26.79-.59,1.59-.98,2.41l-9.06,18.45-9.06-18.83c-.38-.78-.71-1.52-.98-2.24-.27-.73-.52-1.44-.72-2.15-.02.73-.07,1.48-.18,2.28-.1.8-.26,1.63-.46,2.49l-3.71,17.05h-5.18l8.18-36.08,10.22,21.85c.15.34.4.92.72,1.72.32.81.71,1.8,1.17,2.98.33-.99.86-2.25,1.57-3.78.19-.41.33-.73.42-.94l9.98-21.82,8.37,36.08h-5.23l-3.83-17.09h0Z"/>
    <polygon class="cls-11" points="1061.07 380.38 1061.07 345.76 1066.69 345.76 1066.69 375.35 1079.28 375.35 1079.28 380.38 1061.07 380.38 1061.07 380.38"/>
  </g>
  <g>
    <path class="cls-9" d="m350.2,604.62c-.83,10.16,2.64,39.44-6.97,42.32-14.41,4.32-23.63-27.44-33.15-42.32h-58.62c-10.32,0-18.74-8.42-18.74-18.74v-83.6c0-10.32,8.42-18.74,18.74-18.74h115.31c10.32,0,18.74,8.42,18.74,18.74v83.6c0,10.32-8.42,18.74-18.74,18.74h-16.57Z"/>
    <path class="cls-11" d="m291.36,537.61c-1.13-1.23-2.43-2.18-3.93-2.82-1.5-.66-3.11-.98-4.85-.98-2.99,0-5.38.97-7.19,2.9-1.8,1.94-2.7,4.5-2.7,7.7s.91,5.95,2.72,7.85c1.81,1.9,4.31,2.85,7.52,2.85,1.78,0,3.37-.33,4.76-.99,1.39-.67,2.62-1.67,3.68-3.02v8.44c-1.35.76-2.8,1.33-4.35,1.71-1.53.38-3.18.58-4.91.58-5.03,0-9.12-1.6-12.28-4.79-3.17-3.19-4.75-7.34-4.75-12.43s1.64-9.31,4.91-12.47c3.29-3.17,7.56-4.75,12.86-4.75,1.66,0,3.19.16,4.59.5,1.39.32,2.71.83,3.92,1.51v8.23h0Z"/>
    <path class="cls-11" d="m294.8,554.69l6.09-3.32c.45,1.6,1.28,2.82,2.5,3.65,1.21.84,2.78,1.26,4.68,1.26,1.65,0,2.94-.38,3.87-1.13.93-.76,1.39-1.79,1.39-3.1,0-1.73-1.66-3.22-4.99-4.46-1.12-.4-1.99-.74-2.59-1.01-3.42-1.42-5.82-2.86-7.18-4.32-1.36-1.45-2.04-3.24-2.04-5.33,0-2.86,1.12-5.18,3.35-6.96,2.25-1.78,5.21-2.66,8.9-2.66,2.48,0,4.6.46,6.36,1.37,1.76.91,3.05,2.2,3.86,3.9l-5.2,3.58c-.38-1.01-1.05-1.82-2.01-2.42-.96-.6-2.06-.9-3.32-.9-1.39,0-2.51.33-3.35.99-.84.67-1.27,1.56-1.27,2.66,0,1.66,1.89,3.18,5.66,4.55,1.2.43,2.12.78,2.77,1.05,2.95,1.18,5.06,2.49,6.34,3.96,1.27,1.48,1.9,3.32,1.9,5.52,0,3.2-1.16,5.71-3.48,7.52-2.32,1.81-5.51,2.72-9.59,2.72-3.12,0-5.73-.59-7.79-1.75-2.07-1.18-3.69-2.96-4.86-5.37h0Z"/>
    <path class="cls-11" d="m323.87,554.69l6.09-3.32c.45,1.6,1.28,2.82,2.5,3.65,1.21.84,2.78,1.26,4.68,1.26,1.65,0,2.94-.38,3.87-1.13.93-.76,1.39-1.79,1.39-3.1,0-1.73-1.66-3.22-4.99-4.46-1.12-.4-1.99-.74-2.59-1.01-3.42-1.42-5.82-2.86-7.18-4.32-1.36-1.45-2.04-3.24-2.04-5.33,0-2.86,1.12-5.18,3.35-6.96,2.25-1.78,5.21-2.66,8.9-2.66,2.48,0,4.6.46,6.36,1.37,1.76.91,3.05,2.2,3.86,3.9l-5.2,3.58c-.38-1.01-1.05-1.82-2.01-2.42-.96-.6-2.06-.9-3.32-.9-1.39,0-2.51.33-3.35.99-.84.67-1.27,1.56-1.27,2.66,0,1.66,1.89,3.18,5.66,4.55,1.2.43,2.12.78,2.77,1.05,2.95,1.18,5.06,2.49,6.34,3.96,1.27,1.48,1.9,3.32,1.9,5.52,0,3.2-1.16,5.71-3.48,7.52-2.32,1.81-5.51,2.72-9.59,2.72-3.12,0-5.73-.59-7.79-1.75-2.07-1.18-3.69-2.96-4.86-5.37h0Z"/>
  </g>
</svg>