<?xml version="1.0" encoding="UTF-8"?>
<svg id="Layer_1" data-name="Layer 1" xmlns="http://www.w3.org/2000/svg" viewBox="0 0 1080 1080">
  <path d="m468.85,205.52h0c-21.38,0-41.13,11.4-51.82,29.92L99.9,784.73c-23,39.89,5.75,89.75,51.81,89.75h0c21.38,0,41.13-11.4,51.81-29.92l317.15-549.29c23.03-39.89-5.76-89.75-51.82-89.75Z"/>
  <path d="m356.28,874.48h0c21.38,0,41.13-11.4,51.82-29.92l317.14-549.29c23-39.89-5.76-89.75-51.82-89.75h0c-21.38,0-41.13,11.4-51.82,29.92l-317.14,549.29c-23.03,39.89,5.76,89.75,51.82,89.75Z"/>
  <path d="m754.08,359.58l-187.46,324.71c-6.9,11.96-2.81,27.25,9.15,34.15,3.8,2.19,8.11,3.35,12.5,3.35h374.93c13.81,0,25-11.19,25-25,0-4.39-1.16-8.7-3.35-12.5l-187.46-324.71c-6.9-11.96-22.19-16.06-34.15-9.16-3.81,2.2-6.97,5.36-9.16,9.16Z"/>
</svg>