<?xml version="1.0" encoding="UTF-8"?>
<svg id="Layer_1" data-name="Layer 1" xmlns="http://www.w3.org/2000/svg" viewBox="0 0 1080 1080">
  <defs>
    <style>
      .cls-1 {
        fill: #fff;
      }
    </style>
  </defs>
  <path class="cls-1" d="m457.29,151.19h0c-24.85,0-47.82,13.26-60.24,34.78L28.41,824.48c-26.74,46.37,6.68,104.33,60.23,104.33h0c24.85,0,47.81-13.26,60.23-34.78L517.53,255.52c26.77-46.37-6.7-104.33-60.24-104.33Z"/>
  <path class="cls-1" d="m326.43,928.81h0c24.85,0,47.82-13.26,60.24-34.78L755.33,255.52c26.74-46.37-6.7-104.33-60.24-104.33h0c-24.85,0-47.82,13.26-60.24,34.78l-368.65,638.51c-26.77,46.37,6.7,104.33,60.24,104.33Z"/>
  <path class="cls-1" d="m788.85,330.27l-217.91,377.45c-8.02,13.9-3.26,31.67,10.64,39.7,4.42,2.55,9.43,3.89,14.53,3.89h435.83c16.05,0,29.06-13.01,29.06-29.06,0-5.1-1.34-10.11-3.89-14.53l-217.91-377.45c-8.02-13.9-25.79-18.67-39.69-10.65-4.42,2.55-8.1,6.23-10.65,10.65Z"/>
</svg>